<?xml version="1.0" encoding="utf-8"?>
<!-- Generator: Adobe Illustrator 18.0.0, SVG Export Plug-In . SVG Version: 6.00 Build 0)  -->
<!DOCTYPE svg PUBLIC "-//W3C//DTD SVG 1.1//EN" "http://www.w3.org/Graphics/SVG/1.1/DTD/svg11.dtd">
<svg version="1.1" xmlns="http://www.w3.org/2000/svg" xmlns:xlink="http://www.w3.org/1999/xlink" x="0px" y="0px"
	 viewBox="0 0 880.9 780" style="enable-background:new 0 0 880.9 780;" xml:space="preserve">
<style type="text/css">
	.st0{fill:#CCCCCC;}
	.st1{fill:#9497A0;}
	.st2{fill:#999999;}
	.st3{fill:#CFCBCC;}
	.st4{fill:#AEACB1;}
	.st5{fill:#5D6832;}
	.st6{fill:#4A5629;}
	.st7{fill:#829533;}
	.st8{fill:#966A47;}
	.st9{fill:#754C24;}
	.st10{fill:#63A809;}
	.st11{fill:#5C9B02;}
	.st12{fill:#427D00;}
	.st13{fill:#FFFFFF;}
	.st14{fill:#D6D3D4;}
	.st15{enable-background:new    ;}
	.st16{fill:#9F9F9F;}
	.st17{fill:#DDDDDD;}
	.st18{fill:#726F70;}
	.st19{fill:#ECEDEB;}
	.st20{fill:#C1BFC0;}
	.st21{fill:#E6E3E4;}
	.st22{fill:#7A7979;}
	.st23{fill:#F5F5F5;}
	.st24{fill:none;}
	.st25{opacity:0.35;fill:#F1DD00;}
	.st26{fill:#F1DD00;}
	.st27{fill:#C1906F;}
	.st28{opacity:0.26;fill:#231F20;}
	.st29{fill:#B20606;}
	.st30{fill:#DD1212;}
	.st31{fill:#D3CDC2;}
	.st32{fill:#C92518;}
	.st33{fill:#355063;}
	.st34{fill:#D1A586;}
	.st35{fill:#4F6A7F;}
	.st36{fill:#EA3421;}
	.st37{fill:#F44A3D;}
	.st38{fill:#BAC6C9;}
	.st39{fill:#D3E1E5;}
	.st40{fill:#281504;}
	.st41{fill:#EAE0C5;}
	.st42{fill:#96928C;}
	.st43{fill:#010F0F;}
	.st44{fill:#454949;}
	.st45{fill:#E8C5AC;}
	.st46{fill:#0666B5;}
	.st47{fill:#1A5072;}
	.st48{fill:#186C9B;}
	.st49{fill:#007EF6;}
	.st50{fill:#35A0F9;}
	.st51{fill:#D8B7A0;}
	.st52{fill:#FFE8D9;}
	.st53{fill:#87510A;}
	.st54{fill:#55B7F9;}
	.st55{fill:#D5DFEF;}
	.st56{fill:#DEB395;}
	.st57{fill:#F5D7C1;}
	.st58{fill:#FFE1CC;}
	.st59{fill:#BFD1D6;}
	.st60{fill:#F2CEB6;}
	.st61{fill:#C16205;}
	.st62{fill:#724811;}
	.st63{fill:#FAFCFC;}
	.st64{fill:#81959B;}
	.st65{fill:#F7CBAD;}
	.st66{fill:#915309;}
	.st67{fill:#E0AF8D;}
	.st68{fill:#F7DDCB;}
	.st69{opacity:0.27;fill:#231F20;}
	.st70{fill:#2371E2;}
	.st71{fill:#14546D;}
	.st72{fill:#4776A5;}
	.st73{fill:#5883B7;}
	.st74{fill:#E6E7E8;}
	.st75{fill:#6F9BE2;}
	.st76{fill:#F2C8A5;}
	.st77{fill:#898585;}
	.st78{fill:#DADDE0;}
	.st79{fill:#B0D0FF;}
	.st80{fill:#892828;}
	.st81{fill:#FF4A4A;}
	.st82{opacity:0.19;fill:#020100;}
	.st83{fill:#37393A;}
	.st84{fill:#4D7787;}
	.st85{fill:#055568;}
	.st86{fill:#0B6A84;}
	.st87{fill:#323232;}
	.st88{fill:#232323;}
	.st89{fill:#313131;}
	.st90{fill:#464646;}
	.st91{fill:#363636;}
	.st92{fill:#294F3A;}
	.st93{fill:#2E5941;}
	.st94{fill:#36694C;}
	.st95{fill:#E0B392;}
	.st96{fill:#EDC3A4;}
	.st97{fill:#49260A;}
	.st98{fill:#1E3B2B;}
	.st99{fill:#71757C;}
	.st100{fill:#444443;}
	.st101{fill:#707A91;}
	.st102{fill:#848CA5;}
	.st103{fill:#D63B2B;}
	.st104{fill:#633A11;}
	.st105{opacity:0.26;}
	.st106{fill:#859393;}
	.st107{opacity:0.45;fill:#859393;}
	.st108{fill:#BDBFC6;}
	.st109{fill:#FFE266;}
	.st110{fill:#D8D3CA;}
	.st111{fill:#EAC49B;}
	.st112{fill:#EAE4DF;}
	.st113{fill:#C94C4C;}
	.st114{fill:#113D56;}
	.st115{fill:#174F68;}
	.st116{fill:#D19879;}
	.st117{fill:#F96E3E;}
	.st118{fill:#F2E5D6;}
	.st119{fill:#EABB8C;}
	.st120{fill:#895220;}
	.st121{fill:#D8A475;}
	.st122{fill:#A1C40C;}
	.st123{fill:#CDA183;}
	.st124{fill:#AF3765;}
	.st125{fill:#E4B99B;}
	.st126{fill:#F7D6B5;}
	.st127{fill:#3A1D12;}
	.st128{fill:#230C04;}
	.st129{fill:#37607C;}
	.st130{fill:#466D8C;}
	.st131{fill:#314F56;}
	.st132{fill:#E5CBBD;}
	.st133{fill:#E89ACE;}
	.st134{fill:#FCB6E1;}
	.st135{fill:#F7D2B7;}
	.st136{fill:#FCCDEC;}
	.st137{fill:#E2BA13;}
	.st138{fill:#352F2F;}
	.st139{fill:#D3AE94;}
	.st140{fill:#5B5454;}
	.st141{fill:#7C7676;}
	.st142{fill:#B2ADAD;}
	.st143{fill:#5B5353;}
	.st144{fill:#FCD61D;}
	.st145{fill:#8C4F06;}
	.st146{fill:#542D19;}
	.st147{fill:#9E6730;}
	.st148{fill:#0C3F66;}
	.st149{fill:#123E7F;}
	.st150{fill:#2C5EB5;}
	.st151{fill:#DDB79E;}
	.st152{fill:#4C3115;}
	.st153{fill:#F7DECD;}
	.st154{fill:#3872D6;}
	.st155{fill:#EDEDED;}
	.st156{fill:#034C43;}
	.st157{fill:#6B4E2D;}
	.st158{fill:#C18844;}
	.st159{fill:#755632;}
	.st160{fill:#89653A;}
	.st161{fill:#02605B;}
	.st162{fill:#7B8786;}
	.st163{fill:#026E68;}
	.st164{fill:#472709;}
	.st165{fill:#CCA283;}
	.st166{fill:#531AAD;}
	.st167{fill:#CF6783;}
	.st168{fill:#E2718F;}
	.st169{fill:#0B9B2D;}
	.st170{fill:#E2839C;}
	.st171{fill:#236A96;}
	.st172{fill:#0E3347;}
	.st173{fill:#14465C;}
	.st174{fill:#1D3163;}
	.st175{fill:#99B204;}
	.st176{fill:#F48D1C;}
	.st177{fill:#445372;}
	.st178{fill:#A1AFC9;}
	.st179{fill:#B3E0DF;}
	.st180{fill:#D5EFEE;}
	.st181{fill:#B21B0B;}
	.st182{fill:#911309;}
	.st183{fill:#562D07;}
	.st184{fill:#E59F03;}
	.st185{fill:#AA7100;}
	.st186{fill:#F7AE1E;}
	.st187{fill:#895B5B;}
	.st188{fill:#D32A1E;}
	.st189{fill:#1E3C4D;}
	.st190{fill:#3B5C72;}
	.st191{fill:#03896F;}
	.st192{fill:#0D9B83;}
	.st193{fill:#E0B999;}
	.st194{fill:#31AF97;}
	.st195{fill:#A47305;}
	.st196{fill:#E9C1A6;}
	.st197{fill:#E9DA82;}
	.st198{fill:#AE0C37;}
	.st199{fill:#70A8B6;}
	.st200{fill:#F1E696;}
	.st201{fill:#3A6E84;}
	.st202{fill:#DA3159;}
	.st203{fill:#618BA3;}
	.st204{fill:#B2042A;}
	.st205{fill:#EED1BA;}
	.st206{fill:none;stroke:#FFFFFF;stroke-width:6;stroke-miterlimit:10;}
	.st207{fill:#509259;}
	.st208{fill:#8DC598;}
	.st209{fill:#6AB985;}
	.st210{fill:#9C7699;}
	.st211{fill:#D9A9D8;}
	.st212{fill:#B69DC5;}
	.st213{fill:#FF5C5E;}
	.st214{fill:#FF8F9D;}
	.st215{fill:#FF838A;}
	.st216{fill:#FFBB3D;}
	.st217{fill:#FFEE7C;}
	.st218{fill:url(#SVGID_1_);}
	.st219{fill:#489299;}
	.st220{fill:#85C5D8;}
	.st221{fill:#62B9C5;}
	.st222{fill:#FCE856;}
	.st223{fill:#BCA81B;}
	.st224{opacity:0.29;fill:#160B01;}
	.st225{fill:#545454;}
	.st226{fill:#383736;}
	.st227{fill:#282827;}
	.st228{fill:#E4EFF4;}
	.st229{fill:#E8CAB5;}
	.st230{fill:#6B5741;}
	.st231{fill:#1E1E1A;}
	.st232{fill:#F2D6C7;}
	.st233{fill:#D8BBAB;}
	.st234{fill:#3A3E3F;}
	.st235{opacity:0.29;fill:#231F20;}
	.st236{fill:#231F20;}
	.st237{fill:#60605D;}
	.st238{fill:#141413;}
	.st239{fill:#FF5E48;}
	.st240{fill:#7A797A;}
	.st241{fill:#543211;}
	.st242{fill:#EACEB5;}
	.st243{fill:url(#SVGID_2_);}
	.st244{fill:url(#SVGID_3_);}
	.st245{fill:url(#SVGID_4_);}
	.st246{fill:url(#SVGID_5_);}
	.st247{fill:url(#SVGID_6_);}
	.st248{fill:url(#SVGID_7_);}
	.st249{fill:url(#SVGID_8_);}
	.st250{fill:url(#SVGID_9_);}
	.st251{fill:url(#SVGID_10_);}
	.st252{fill:url(#SVGID_11_);}
	.st253{fill:url(#SVGID_12_);}
</style>
<g id="Layer_2">
	<g>
		<g>
			<polygon class="st0" points="778.6,551.3 778.7,571 489,741.6 550,741.6 807.3,591.9 809.8,566.9 			"/>
		</g>
	</g>
	<line class="st24" x1="394" y1="663.9" x2="394" y2="652.9"/>
</g>
<g id="Layer_4">
	<g>
		<g>
			<polygon class="st5" points="66.8,463.5 66.8,471.7 489,713.2 489,705 			"/>
			<polygon class="st6" points="489,705 489,713.2 778.7,542.7 778.7,534.5 			"/>
		</g>
		<polygon class="st7" points="356.5,293 66.8,463.5 489,705 778.7,534.5 		"/>
		<g>
			<polygon class="st8" points="66.8,471.7 66.8,500.1 489,741.6 489,713.2 			"/>
			<polygon class="st9" points="489,713.2 489,741.6 778.7,571 778.7,542.7 			"/>
		</g>
		<g>
			<polygon class="st10" points="93.8,478.9 383.4,308.4 357,293.3 67.4,463.8 			"/>
			<polygon class="st11" points="146.6,509.1 436.2,338.6 409.8,323.5 120.2,494 			"/>
			<polygon class="st11" points="199.4,539.3 489,368.8 462.6,353.7 173,524.2 			"/>
			<polygon class="st12" points="120.1,494 409.8,323.5 383.5,308.4 93.8,479 			"/>
			<polygon class="st12" points="173,524.2 462.6,353.7 436.2,338.6 146.6,509.1 			"/>
			<polygon class="st11" points="252.2,569.5 541.8,399 515.5,383.9 225.8,554.5 			"/>
			<polygon class="st11" points="305.1,599.8 594.7,429.2 568.3,414.1 278.6,584.7 			"/>
			<polygon class="st12" points="225.8,554.4 515.4,383.9 489,368.8 199.4,539.3 			"/>
			<polygon class="st12" points="278.6,584.7 568.3,414.1 541.8,399 252.2,569.5 			"/>
			<polygon class="st11" points="357.9,630 647.5,459.4 621.1,444.4 331.5,614.9 			"/>
			<polygon class="st11" points="410.7,660.2 700.4,489.7 673.9,474.6 384.3,645.1 			"/>
			<polygon class="st12" points="331.4,614.9 621.1,444.3 594.7,429.2 305.1,599.8 			"/>
			<polygon class="st12" points="384.3,645.1 673.9,474.6 647.5,459.4 357.9,630 			"/>
			<polygon class="st11" points="463.5,690.4 753.2,519.9 726.8,504.8 437.2,675.3 			"/>
			<polygon class="st12" points="437.1,675.3 726.7,504.8 700.4,489.7 410.7,660.2 			"/>
			<polygon class="st12" points="489,705 778.7,534.5 753.2,519.9 463.5,690.4 			"/>
		</g>
	</g>
</g>
<g id="Layer_3">
	<polygon class="st206" points="317.3,330.9 710.5,562.2 752.8,536.4 356.1,308 	"/>
	<polygon class="st206" points="352,368.3 143,491.1 91,462.4 300.5,339.5 	"/>
	<g>
		<polygon class="st0" points="701.7,541.4 778.7,533.1 476.2,360.1 345.2,329.5 		"/>
		<g>
			<g>
				<g>
					<polygon class="st207" points="529.6,317.7 518.8,323.6 518.8,433.8 529.6,427.3 					"/>
					<polygon class="st208" points="356.3,218.1 529.6,317.7 518.8,323.6 345.2,224.3 					"/>
					<polygon class="st209" points="345.2,224.3 518.8,323.6 518.8,433.8 500.2,422.7 345.2,330.9 					"/>
				</g>
				<g>
					<g>
						<g>
							<polygon class="st13" points="412.9,285.2 412.9,287.2 409.7,285.3 409.7,297.3 408.1,296.4 408.2,284.4 404.9,282.6 
								404.9,280.6 							"/>
						</g>
						<g>
							<path class="st13" d="M418.4,288.4l3.8,16.1l-1.6-0.9l-1-4.4l-3.7-2.2l-1,3.2l-1.6-0.9l3.9-11.6L418.4,288.4z M416.1,295.6
								l3.2,1.8l-1.5-6.9L416.1,295.6"/>
						</g>
						<g>
							<polygon class="st13" points="425,292.2 424.9,304.1 430.1,307.1 430.1,309.1 423.4,305.2 423.4,291.3 							"/>
						</g>
						<g>
							<polygon class="st13" points="438,299.7 438,301.6 433,298.8 433,302.7 437.3,305.2 437.3,307 433,304.5 433,308.8 
								438.1,311.7 438.1,313.7 431.4,309.8 431.5,295.9 							"/>
						</g>
						<g>
							<polygon class="st13" points="440.9,301.4 446.4,314.6 446.5,304.6 448,305.5 448,319.4 446.7,318.6 441.3,305.7 
								441.2,315.5 439.7,314.6 439.7,300.7 							"/>
						</g>
						<g>
							<polygon class="st13" points="457.3,310.8 457.3,312.8 454.1,310.9 454,322.9 452.5,322 452.5,310 449.3,308.2 449.3,306.2 
															"/>
						</g>
						<g>
							<polygon class="st13" points="377.4,289.2 377.4,303.1 375.8,302.2 375.9,288.4 							"/>
						</g>
						<g>
							<path class="st13" d="M387.4,299.2c0.2,1,0.3,1.9,0.3,2.9c0,1.1-0.1,2-0.3,2.7c-0.2,0.7-0.5,1.3-1,1.6
								c-0.4,0.4-0.9,0.5-1.5,0.5c-0.6,0-1.2-0.2-1.9-0.6l-3.4-2l0-13.9l3.4,2c0.8,0.4,1.5,1,2,1.7c0.6,0.7,1.1,1.5,1.5,2.3
								C386.9,297.4,387.2,298.3,387.4,299.2z M385.9,303.1c0.1-0.5,0.2-1.2,0.2-1.9c0-0.7-0.1-1.4-0.2-2.1
								c-0.1-0.7-0.3-1.3-0.6-1.9c-0.3-0.6-0.6-1.1-1-1.6c-0.4-0.5-0.8-0.9-1.3-1.1l-1.9-1.1l0,10l1.9,1.1c0.5,0.3,1,0.4,1.4,0.4
								c0.4,0,0.7-0.2,1-0.5C385.6,304,385.8,303.6,385.9,303.1"/>
						</g>
						<g>
							<polygon class="st13" points="395.9,299.9 395.9,301.8 390.9,298.9 390.9,302.9 395.2,305.4 395.2,307.2 390.9,304.7 
								390.8,309 396,311.9 395.9,313.8 389.3,310 389.4,296.1 							"/>
						</g>
						<g>
							<polygon class="st13" points="398.8,301.6 404.3,314.8 404.4,304.8 405.9,305.7 405.9,319.6 404.6,318.8 399.1,305.9 
								399.1,315.7 397.6,314.8 397.6,300.9 							"/>
						</g>
						<g>
							<polygon class="st13" points="415.2,311 415.2,313 411.9,311.1 411.9,323.1 410.4,322.2 410.4,310.2 407.2,308.4 
								407.2,306.4 							"/>
						</g>
						<g>
							<polygon class="st13" points="418,312.7 418,326.6 416.4,325.7 416.5,311.8 							"/>
						</g>
						<g>
							<polygon class="st13" points="426.6,317.6 426.6,319.6 421.7,316.7 421.7,320.9 425.8,323.3 425.8,325.1 421.7,322.7 
								421.7,328.7 420.2,327.8 420.2,313.9 							"/>
						</g>
						<g>
							<path class="st13" d="M432.2,320.9L436,337l-1.6-0.9l-1-4.4l-3.7-2.2l-1,3.2l-1.6-0.9l3.9-11.6L432.2,320.9z M429.9,328.1
								l3.2,1.8l-1.5-6.9L429.9,328.1"/>
						</g>
						<g>
							<path class="st13" d="M441.3,326c0.9,0.5,1.6,1.2,2.2,2.1c0.6,0.9,1.1,1.9,1.4,3l-1.2,0.5c-0.1-0.5-0.3-0.9-0.5-1.3
								c-0.2-0.4-0.4-0.7-0.6-1c-0.2-0.3-0.5-0.5-0.7-0.8c-0.2-0.2-0.5-0.4-0.7-0.5c-0.5-0.3-0.9-0.4-1.3-0.3
								c-0.4,0.1-0.7,0.3-0.9,0.6c-0.3,0.3-0.4,0.8-0.6,1.3c-0.1,0.5-0.2,1.1-0.2,1.7c0,0.7,0.1,1.4,0.2,2.1c0.2,0.7,0.4,1.4,0.6,2
								c0.3,0.6,0.6,1.2,1,1.7c0.4,0.5,0.8,0.9,1.2,1.1c0.2,0.1,0.5,0.2,0.7,0.3c0.2,0.1,0.5,0.1,0.7,0c0.2-0.1,0.4-0.2,0.6-0.4
								c0.2-0.2,0.4-0.4,0.5-0.8l1.3,1.8c-0.2,0.4-0.4,0.8-0.6,1c-0.3,0.2-0.6,0.4-0.9,0.5c-0.3,0.1-0.7,0.1-1.1,0
								c-0.4-0.1-0.8-0.2-1.2-0.5c-0.7-0.4-1.3-1-1.8-1.7c-0.5-0.7-1-1.6-1.4-2.5c-0.4-0.9-0.7-1.9-0.9-2.8c-0.2-1-0.3-1.9-0.3-2.8
								c0-0.8,0.1-1.6,0.3-2.3s0.5-1.3,0.9-1.7c0.4-0.4,0.9-0.7,1.5-0.8C439.9,325.4,440.5,325.6,441.3,326z"/>
						</g>
						<g>
							<path class="st13" d="M450.6,331.5l3.8,16.1l-1.6-0.9l-1-4.4l-3.7-2.2l-1,3.2l-1.6-0.9l3.9-11.6L450.6,331.5z M448.4,338.7
								l3.2,1.8l-1.5-6.9L448.4,338.7"/>
						</g>
						<g>
							<polygon class="st13" points="462.8,338.5 462.8,340.4 459.5,338.6 459.5,350.5 458,349.7 458,337.7 454.8,335.8 
								454.8,333.9 							"/>
						</g>
						<g>
							<polygon class="st13" points="465.6,340.2 465.6,354 464.1,353.2 464.1,339.3 							"/>
						</g>
						<g>
							<path class="st13" d="M476,350.6c0.2,1,0.3,1.9,0.3,2.8c0,0.9-0.1,1.7-0.4,2.5c-0.2,0.7-0.6,1.3-1,1.7
								c-0.4,0.4-0.9,0.6-1.5,0.7c-0.6,0.1-1.2-0.1-1.8-0.5c-0.7-0.4-1.3-1-1.9-1.7c-0.6-0.7-1-1.5-1.4-2.4
								c-0.4-0.9-0.7-1.8-0.9-2.8c-0.2-1-0.3-1.9-0.3-2.8c0-0.9,0.1-1.7,0.4-2.5c0.2-0.7,0.6-1.3,1-1.7c0.4-0.4,0.9-0.7,1.5-0.7
								c0.6-0.1,1.2,0.1,1.8,0.5c0.7,0.4,1.3,1,1.9,1.7c0.6,0.7,1,1.5,1.4,2.4C475.5,348.7,475.8,349.6,476,350.6z M474.6,354.1
								c0.1-0.5,0.2-1.1,0.2-1.7c0-0.7-0.1-1.3-0.2-2c-0.1-0.7-0.3-1.3-0.6-2c-0.3-0.6-0.6-1.2-0.9-1.7c-0.4-0.5-0.8-0.9-1.2-1.1
								c-0.5-0.3-0.9-0.4-1.3-0.3c-0.4,0.1-0.7,0.3-1,0.6s-0.5,0.7-0.6,1.3c-0.1,0.5-0.2,1.1-0.2,1.7c0,0.7,0.1,1.3,0.2,2
								c0.1,0.7,0.3,1.4,0.6,2c0.3,0.6,0.6,1.2,1,1.7c0.4,0.5,0.8,0.9,1.3,1.1c0.5,0.3,0.9,0.4,1.3,0.3c0.4-0.1,0.7-0.3,1-0.6
								C474.2,355.1,474.4,354.7,474.6,354.1"/>
						</g>
						<g>
							<polygon class="st13" points="479.2,348 484.7,361.2 484.7,351.2 486.2,352.1 486.2,365.9 484.9,365.2 479.5,352.3 
								479.4,362.1 477.9,361.2 478,347.3 							"/>
						</g>
						<g>
							<path class="st13" d="M396.9,336l1.9,4l-2-1.1L396,337c-0.4,0.3-0.8,0.4-1.3,0.4c-0.5,0-1-0.2-1.5-0.5
								c-0.5-0.3-0.9-0.6-1.3-1.1c-0.4-0.4-0.7-0.9-1-1.4c-0.3-0.5-0.5-1.1-0.6-1.6c-0.2-0.6-0.2-1.1-0.2-1.7c0-0.4,0.1-0.8,0.2-1.1
								c0.1-0.3,0.2-0.6,0.4-0.8c0.2-0.2,0.4-0.4,0.6-0.6c0.2-0.2,0.4-0.3,0.7-0.4c-0.2-0.4-0.4-0.8-0.5-1.2c-0.1-0.4-0.3-0.7-0.3-1
								s-0.2-0.6-0.2-0.8c0-0.2,0-0.5,0-0.7c0-0.5,0.1-0.9,0.2-1.2c0.1-0.3,0.3-0.6,0.5-0.7c0.2-0.2,0.5-0.2,0.8-0.2
								c0.3,0,0.7,0.1,1,0.4c0.3,0.2,0.6,0.4,0.9,0.7c0.3,0.3,0.6,0.6,0.8,1c0.2,0.4,0.4,0.8,0.5,1.2c0.1,0.5,0.2,0.9,0.2,1.4
								c0,0.8-0.2,1.3-0.5,1.7c-0.4,0.4-0.8,0.7-1.3,0.9l2.2,4.5c0.2-0.4,0.3-0.8,0.4-1.3c0.1-0.5,0.1-1,0.1-1.6l1.2,0.7
								c0,0.9-0.1,1.6-0.2,2.3C397.4,335,397.2,335.5,396.9,336z M394.3,335.6c0.3,0,0.6-0.1,0.9-0.3l-2.5-5.3
								c-0.4,0.2-0.7,0.4-0.9,0.7c-0.2,0.3-0.3,0.7-0.3,1.2c0,0.3,0,0.7,0.2,1c0.1,0.3,0.2,0.7,0.4,0.9c0.2,0.3,0.4,0.6,0.6,0.8
								c0.2,0.2,0.5,0.4,0.7,0.6C393.7,335.5,394,335.6,394.3,335.6 M392.4,324.3c-0.2,0.2-0.3,0.5-0.3,0.9c0,0.1,0,0.3,0,0.4
								c0,0.1,0.1,0.3,0.1,0.5c0.1,0.2,0.2,0.4,0.3,0.7c0.1,0.3,0.3,0.6,0.5,1c0.4-0.1,0.8-0.3,1-0.5c0.2-0.2,0.4-0.5,0.4-0.9
								c0-0.4-0.1-0.8-0.3-1.2c-0.2-0.4-0.5-0.7-0.8-0.8C392.9,324.1,392.6,324.1,392.4,324.3"/>
						</g>
						<g>
							<path class="st13" d="M406.5,330.4c0.7,0.4,1.3,0.9,1.8,1.5c0.5,0.6,1,1.3,1.4,2l-0.7,1.4c-0.1-0.2-0.2-0.4-0.4-0.7
								c-0.2-0.3-0.4-0.5-0.6-0.8c-0.2-0.3-0.5-0.5-0.8-0.8c-0.3-0.3-0.6-0.5-0.9-0.7c-0.6-0.3-1.1-0.4-1.4-0.3
								c-0.3,0.2-0.5,0.6-0.5,1.2c0,0.3,0,0.6,0.2,0.9c0.1,0.3,0.2,0.5,0.4,0.8c0.2,0.3,0.5,0.6,0.7,0.9c0.3,0.3,0.7,0.6,1.1,1
								c0.5,0.5,0.9,0.9,1.3,1.3c0.4,0.4,0.7,0.9,1,1.3c0.3,0.5,0.5,0.9,0.6,1.5c0.2,0.5,0.2,1.1,0.2,1.7c0,0.7-0.1,1.3-0.3,1.7
								c-0.2,0.4-0.4,0.7-0.8,0.8c-0.3,0.1-0.7,0.2-1.1,0.1c-0.4-0.1-0.9-0.3-1.4-0.6c-0.7-0.4-1.4-1-2.1-1.7
								c-0.7-0.7-1.3-1.5-1.9-2.5l0.7-1.5c0.1,0.2,0.3,0.5,0.5,0.9c0.2,0.3,0.5,0.7,0.8,1c0.3,0.3,0.6,0.7,1,1
								c0.4,0.3,0.7,0.6,1.1,0.8c0.6,0.3,1,0.5,1.4,0.3c0.3-0.1,0.5-0.5,0.5-1.1c0-0.4-0.1-0.7-0.2-1c-0.1-0.3-0.3-0.6-0.5-0.9
								c-0.2-0.3-0.5-0.6-0.8-0.9c-0.3-0.3-0.7-0.7-1.1-1.1c-0.5-0.5-0.9-0.9-1.3-1.3c-0.4-0.4-0.7-0.8-0.9-1.2
								c-0.2-0.4-0.4-0.9-0.5-1.3c-0.1-0.5-0.2-1-0.2-1.5c0-0.7,0.1-1.2,0.3-1.7c0.2-0.4,0.4-0.7,0.7-0.9c0.3-0.2,0.7-0.2,1.1-0.2
								C405.6,330,406,330.1,406.5,330.4z"/>
						</g>
						<g>
							<path class="st13" d="M415.8,335.8c0.9,0.5,1.6,1.2,2.2,2.1c0.6,0.9,1.1,1.9,1.4,3l-1.2,0.5c-0.1-0.5-0.3-0.9-0.5-1.3
								c-0.2-0.4-0.4-0.7-0.6-1c-0.2-0.3-0.4-0.5-0.7-0.8c-0.2-0.2-0.5-0.4-0.7-0.5c-0.5-0.3-0.9-0.4-1.3-0.3
								c-0.4,0.1-0.7,0.3-0.9,0.6c-0.3,0.3-0.4,0.8-0.6,1.3c-0.1,0.5-0.2,1.1-0.2,1.7c0,0.7,0.1,1.4,0.2,2.1c0.1,0.7,0.4,1.4,0.6,2
								c0.3,0.6,0.6,1.2,1,1.7c0.4,0.5,0.8,0.9,1.2,1.1c0.2,0.1,0.5,0.2,0.7,0.3c0.2,0.1,0.5,0.1,0.7,0c0.2-0.1,0.4-0.2,0.6-0.4
								c0.2-0.2,0.4-0.4,0.5-0.8l1.3,1.8c-0.2,0.4-0.4,0.8-0.6,1c-0.3,0.2-0.6,0.4-0.9,0.5c-0.3,0.1-0.7,0.1-1.1,0
								c-0.4-0.1-0.8-0.2-1.2-0.5c-0.7-0.4-1.3-1-1.8-1.7c-0.6-0.7-1-1.6-1.4-2.5c-0.4-0.9-0.7-1.8-0.9-2.8c-0.2-1-0.3-1.9-0.3-2.8
								c0-0.8,0.1-1.6,0.3-2.3s0.5-1.3,0.9-1.7s0.9-0.7,1.5-0.8C414.4,335.2,415,335.4,415.8,335.8z"/>
						</g>
						<g>
							<path class="st13" d="M429.2,348c0.2,1,0.3,1.9,0.3,2.8c0,0.9-0.1,1.7-0.4,2.5c-0.2,0.7-0.6,1.3-1,1.7s-0.9,0.6-1.5,0.7
								c-0.6,0.1-1.2-0.1-1.8-0.5c-0.7-0.4-1.3-1-1.9-1.7c-0.6-0.7-1-1.5-1.4-2.4c-0.4-0.9-0.7-1.8-0.9-2.8c-0.2-1-0.3-1.9-0.3-2.8
								c0-0.9,0.1-1.7,0.4-2.5c0.2-0.7,0.6-1.3,1-1.7c0.4-0.4,0.9-0.7,1.5-0.7c0.6-0.1,1.2,0.1,1.8,0.5c0.7,0.4,1.3,1,1.9,1.7
								c0.6,0.7,1,1.6,1.4,2.4C428.7,346.1,429,347.1,429.2,348z M427.7,351.6c0.1-0.5,0.2-1.1,0.2-1.7c0-0.7-0.1-1.3-0.2-2
								c-0.1-0.7-0.3-1.3-0.6-2c-0.3-0.6-0.6-1.2-1-1.7c-0.4-0.5-0.8-0.9-1.2-1.1c-0.5-0.3-0.9-0.4-1.3-0.3c-0.4,0.1-0.7,0.3-1,0.6
								c-0.3,0.3-0.5,0.7-0.6,1.3c-0.1,0.5-0.2,1.1-0.2,1.7c0,0.7,0.1,1.3,0.2,2c0.1,0.7,0.3,1.3,0.6,2c0.3,0.6,0.6,1.2,0.9,1.7
								c0.4,0.5,0.8,0.9,1.3,1.1c0.5,0.3,0.9,0.4,1.3,0.3c0.4-0.1,0.7-0.3,1-0.6C427.4,352.5,427.6,352.1,427.7,351.6"/>
						</g>
						<g>
							<path class="st13" d="M439.3,349.5l0,7c0,1-0.1,1.8-0.2,2.6c-0.2,0.8-0.4,1.4-0.7,1.8c-0.3,0.4-0.8,0.7-1.3,0.7
								c-0.5,0.1-1.2-0.1-1.9-0.6c-0.8-0.4-1.4-1-2-1.7c-0.5-0.7-1-1.5-1.3-2.3c-0.3-0.8-0.6-1.7-0.7-2.6c-0.1-0.9-0.2-1.8-0.2-2.7
								l0-7l1.5,0.9l0,7c0,0.6,0,1.3,0.1,1.9c0.1,0.6,0.2,1.3,0.4,1.8c0.2,0.6,0.5,1.1,0.8,1.6c0.3,0.5,0.8,0.9,1.3,1.1
								c0.5,0.3,0.9,0.4,1.3,0.3c0.3-0.1,0.6-0.3,0.8-0.7c0.2-0.3,0.4-0.8,0.4-1.3c0.1-0.5,0.1-1.1,0.1-1.8l0-7L439.3,349.5z"/>
						</g>
						<g>
							<polygon class="st13" points="448.4,354.7 448.4,356.7 445.2,354.8 445.2,366.8 443.7,365.9 443.7,353.9 440.5,352.1 
								440.5,350.1 							"/>
						</g>
						<g>
							<polygon class="st13" points="451.3,356.4 451.2,370.3 449.7,369.4 449.8,355.5 							"/>
						</g>
						<g>
							<polygon class="st13" points="454.7,358.3 460.2,371.5 460.2,361.5 461.7,362.4 461.7,376.3 460.4,375.6 455,362.6 
								454.9,372.4 453.4,371.5 453.5,357.6 							"/>
						</g>
						<g>
							<path class="st13" d="M467.9,365.8c0.9,0.5,1.7,1.2,2.3,2.2c0.6,0.9,1.1,1.9,1.4,3l-1.2,0.5c-0.3-0.9-0.6-1.7-1.1-2.3
								c-0.5-0.6-0.9-1.1-1.5-1.4c-0.4-0.3-0.8-0.4-1.2-0.3c-0.4,0.1-0.7,0.3-0.9,0.6s-0.5,0.7-0.6,1.3c-0.1,0.5-0.2,1.1-0.2,1.8
								c0,0.7,0.1,1.4,0.2,2.1c0.2,0.7,0.4,1.4,0.6,2c0.3,0.6,0.6,1.2,1,1.6c0.4,0.5,0.8,0.9,1.2,1.1c1,0.6,1.9,0.4,2.6-0.5l0-1.5
								l-2-1.2l0-1.6l3.3,1.9l0,7l-1.3-0.7l0-1.7c-0.8,0.8-1.7,0.8-2.8,0.2c-0.6-0.4-1.2-0.9-1.8-1.6c-0.6-0.7-1-1.5-1.4-2.4
								c-0.4-0.9-0.7-1.8-1-2.8c-0.2-1-0.3-1.9-0.3-2.9c0-0.9,0.1-1.8,0.4-2.5c0.2-0.7,0.6-1.3,1-1.7c0.4-0.4,0.9-0.6,1.4-0.7
								C466.6,365.3,467.2,365.5,467.9,365.8z"/>
						</g>
					</g>
				</g>
			</g>
			<g>
				<g>
					<polygon class="st210" points="712.4,425.3 701.7,431.2 701.7,541.4 712.4,534.9 					"/>
					<polygon class="st211" points="539.2,325.7 712.4,425.3 701.7,431.2 528.1,331.9 					"/>
					<polygon class="st212" points="528.1,331.9 701.7,431.2 701.7,541.4 683.1,530.3 528.1,438.5 					"/>
				</g>
				<g>
					<g>
						<g>
							<polygon class="st13" points="567.8,375.8 563.9,387.5 562.6,386.7 558.7,370.6 560.4,371.5 563.3,384.3 566.2,374.9 							
								"/>
						</g>
						<g>
							<polygon class="st13" points="570.5,377.4 570.5,391.2 568.9,390.4 569,376.5 							"/>
						</g>
						<g>
							<path class="st13" d="M580.5,387.4c0.2,1,0.3,1.9,0.3,2.9c0,1.1-0.1,1.9-0.3,2.7c-0.2,0.7-0.5,1.3-1,1.6
								c-0.4,0.4-0.9,0.6-1.5,0.5c-0.6,0-1.2-0.2-1.9-0.6l-3.4-2l0-13.9l3.4,2c0.8,0.5,1.5,1,2,1.7c0.6,0.7,1.1,1.5,1.5,2.3
								C580,385.5,580.3,386.4,580.5,387.4z M579,391.2c0.1-0.5,0.2-1.2,0.2-1.9c0-0.7-0.1-1.4-0.2-2.1c-0.1-0.7-0.3-1.3-0.6-1.9
								c-0.3-0.6-0.6-1.1-1-1.6c-0.4-0.5-0.8-0.8-1.3-1.1l-1.9-1.1l0,10l1.9,1.1c0.5,0.3,1,0.4,1.4,0.4c0.4,0,0.7-0.2,1-0.5
								C578.7,392.2,578.9,391.8,579,391.2"/>
						</g>
						<g>
							<polygon class="st13" points="589,388 589,390 584,387.1 584,391 588.3,393.5 588.3,395.3 584,392.8 583.9,397.1 589,400 
								589,402 582.4,398.2 582.4,384.3 							"/>
						</g>
						<g>
							<path class="st13" d="M598.9,398.2c0.2,1,0.3,1.9,0.3,2.8c0,0.9-0.1,1.7-0.4,2.5c-0.2,0.7-0.6,1.3-1,1.7
								c-0.4,0.4-0.9,0.6-1.5,0.7c-0.6,0.1-1.2-0.1-1.8-0.5c-0.7-0.4-1.3-0.9-1.9-1.7c-0.6-0.7-1-1.5-1.4-2.4
								c-0.4-0.9-0.7-1.8-0.9-2.8c-0.2-1-0.3-1.9-0.3-2.8c0-0.9,0.1-1.7,0.4-2.5c0.2-0.7,0.6-1.3,1-1.7c0.4-0.4,0.9-0.6,1.5-0.7
								c0.6-0.1,1.2,0.1,1.8,0.5c0.7,0.4,1.3,1,1.9,1.7c0.6,0.7,1,1.6,1.4,2.4C598.4,396.3,598.7,397.2,598.9,398.2z M597.5,401.8
								c0.1-0.5,0.2-1.1,0.2-1.7c0-0.7-0.1-1.3-0.2-2c-0.1-0.7-0.3-1.3-0.6-2c-0.3-0.6-0.6-1.2-0.9-1.7c-0.4-0.5-0.8-0.9-1.2-1.1
								c-0.5-0.3-0.9-0.4-1.3-0.3c-0.4,0.1-0.7,0.3-1,0.6c-0.3,0.3-0.5,0.7-0.6,1.3c-0.1,0.5-0.2,1.1-0.2,1.7c0,0.7,0.1,1.3,0.2,2
								c0.1,0.7,0.3,1.4,0.6,2c0.3,0.6,0.6,1.2,0.9,1.7s0.8,0.9,1.3,1.1c0.5,0.3,0.9,0.4,1.3,0.3c0.4-0.1,0.7-0.3,1-0.6
								C597.2,402.7,597.4,402.3,597.5,401.8"/>
						</g>
						<g>
							<path class="st13" d="M608.4,399.2l3.8,16.1l-1.6-0.9l-1-4.4l-3.7-2.2l-1,3.2l-1.6-0.9l3.9-11.6L608.4,399.2z M606.1,406.4
								l3.2,1.8l-1.5-6.9L606.1,406.4"/>
						</g>
						<g>
							<polygon class="st13" points="614.6,402.8 620.1,416 620.1,406 621.7,406.9 621.7,420.8 620.4,420.1 614.9,407.1 
								614.9,416.9 613.4,416 613.4,402.2 							"/>
						</g>
						<g>
							<path class="st13" d="M628,410.6l3.8,16.1l-1.6-0.9l-1-4.4l-3.7-2.2l-1,3.2l-1.6-0.9l3.9-11.6L628,410.6z M625.8,417.8
								l3.2,1.8l-1.5-6.9L625.8,417.8"/>
						</g>
						<g>
							<polygon class="st13" points="634.6,414.4 634.6,426.3 639.8,429.3 639.8,431.3 633,427.4 633.1,413.5 							"/>
						</g>
						<g>
							<polygon class="st13" points="648.7,422.5 645.1,429.4 645.1,434.4 643.6,433.5 643.6,428.5 640,417.5 641.7,418.5 
								644.4,427 647.1,421.6 							"/>
						</g>
						<g>
							<path class="st13" d="M653,424.9c0.7,0.4,1.3,0.9,1.8,1.5c0.5,0.6,1,1.3,1.4,2l-0.7,1.4c-0.1-0.2-0.2-0.4-0.4-0.7
								c-0.2-0.3-0.4-0.5-0.6-0.8c-0.2-0.3-0.5-0.5-0.8-0.8c-0.3-0.3-0.6-0.5-0.9-0.7c-0.6-0.3-1.1-0.4-1.4-0.3
								c-0.3,0.2-0.5,0.6-0.5,1.2c0,0.3,0,0.6,0.2,0.9c0.1,0.3,0.2,0.5,0.4,0.8c0.2,0.3,0.5,0.6,0.7,0.9c0.3,0.3,0.7,0.6,1.1,1
								c0.5,0.5,0.9,0.9,1.3,1.3c0.4,0.4,0.7,0.9,1,1.3c0.3,0.5,0.5,0.9,0.6,1.5c0.2,0.5,0.2,1.1,0.2,1.7c0,0.7-0.1,1.3-0.3,1.7
								c-0.2,0.4-0.4,0.7-0.8,0.8c-0.3,0.1-0.7,0.2-1.1,0.1c-0.4-0.1-0.9-0.3-1.4-0.6c-0.7-0.4-1.4-1-2.1-1.7
								c-0.7-0.7-1.3-1.5-1.9-2.5l0.7-1.5c0.1,0.2,0.3,0.5,0.5,0.9c0.2,0.3,0.5,0.7,0.8,1c0.3,0.3,0.6,0.7,1,1
								c0.4,0.3,0.7,0.6,1.1,0.8c0.6,0.3,1,0.5,1.4,0.3c0.3-0.1,0.5-0.5,0.5-1.1c0-0.4-0.1-0.7-0.2-1c-0.1-0.3-0.3-0.6-0.5-0.9
								c-0.2-0.3-0.5-0.6-0.8-0.9c-0.3-0.3-0.7-0.7-1.1-1.1c-0.5-0.5-0.9-0.9-1.3-1.3c-0.4-0.4-0.7-0.8-0.9-1.2
								c-0.2-0.4-0.4-0.9-0.5-1.3c-0.1-0.5-0.2-1-0.2-1.5c0-0.7,0.1-1.2,0.3-1.7c0.2-0.4,0.4-0.7,0.7-0.9c0.3-0.2,0.7-0.2,1.1-0.2
								C652,424.4,652.5,424.6,653,424.9z"/>
						</g>
						<g>
							<polygon class="st13" points="659.7,428.9 659.7,442.8 658.2,441.9 658.2,428 							"/>
						</g>
						<g>
							<path class="st13" d="M665,431.9c0.7,0.4,1.3,0.9,1.8,1.5c0.5,0.6,1,1.3,1.4,2l-0.7,1.4c-0.1-0.2-0.2-0.4-0.4-0.7
								c-0.2-0.3-0.4-0.5-0.6-0.8c-0.2-0.3-0.5-0.5-0.8-0.8c-0.3-0.3-0.6-0.5-0.9-0.7c-0.6-0.3-1.1-0.4-1.4-0.3
								c-0.3,0.2-0.5,0.6-0.5,1.2c0,0.3,0,0.6,0.2,0.9c0.1,0.3,0.2,0.5,0.4,0.8c0.2,0.3,0.5,0.6,0.7,0.9c0.3,0.3,0.7,0.6,1.1,1
								c0.5,0.5,0.9,0.9,1.3,1.3c0.4,0.4,0.7,0.9,1,1.3c0.3,0.5,0.5,0.9,0.6,1.5c0.2,0.5,0.2,1.1,0.2,1.7c0,0.7-0.1,1.3-0.3,1.7
								c-0.2,0.4-0.4,0.7-0.8,0.8c-0.3,0.1-0.7,0.2-1.1,0.1c-0.4-0.1-0.9-0.3-1.4-0.6c-0.7-0.4-1.4-1-2.1-1.7
								c-0.7-0.7-1.3-1.5-1.9-2.5l0.7-1.5c0.1,0.2,0.3,0.5,0.5,0.9c0.2,0.3,0.5,0.7,0.8,1c0.3,0.3,0.6,0.7,1,1
								c0.4,0.3,0.7,0.6,1.1,0.8c0.6,0.3,1,0.5,1.4,0.3c0.3-0.1,0.5-0.5,0.5-1.1c0-0.4-0.1-0.7-0.2-1c-0.1-0.3-0.3-0.6-0.5-0.9
								c-0.2-0.3-0.5-0.6-0.8-0.9c-0.3-0.3-0.7-0.7-1.1-1.1c-0.5-0.5-0.9-0.9-1.3-1.3c-0.4-0.4-0.7-0.8-0.9-1.2
								c-0.2-0.4-0.4-0.9-0.5-1.3c-0.1-0.5-0.2-1-0.2-1.5c0-0.7,0.1-1.2,0.3-1.6c0.2-0.4,0.4-0.7,0.7-0.9c0.3-0.2,0.7-0.2,1.1-0.2
								C664.1,431.4,664.6,431.6,665,431.9z"/>
						</g>
						<g>
							<path class="st13" d="M616.6,439.5l1.9,4l-2-1.1l-0.9-1.8c-0.4,0.3-0.8,0.4-1.3,0.4c-0.5,0-1-0.2-1.5-0.5
								c-0.5-0.3-0.9-0.6-1.3-1.1c-0.4-0.4-0.7-0.9-1-1.4c-0.3-0.5-0.5-1.1-0.6-1.6c-0.2-0.6-0.2-1.1-0.2-1.7c0-0.4,0.1-0.8,0.2-1.1
								c0.1-0.3,0.2-0.6,0.4-0.8c0.2-0.2,0.4-0.4,0.6-0.6c0.2-0.1,0.4-0.3,0.7-0.4c-0.2-0.4-0.4-0.8-0.5-1.2c-0.1-0.4-0.3-0.7-0.3-1
								c-0.1-0.3-0.2-0.6-0.2-0.8c0-0.2-0.1-0.5-0.1-0.7c0-0.5,0.1-0.9,0.2-1.2c0.1-0.3,0.3-0.6,0.5-0.7c0.2-0.2,0.5-0.2,0.8-0.2
								c0.3,0,0.7,0.1,1,0.4c0.3,0.2,0.6,0.4,0.9,0.7c0.3,0.3,0.6,0.6,0.8,1c0.2,0.4,0.4,0.8,0.5,1.2c0.1,0.4,0.2,0.9,0.2,1.4
								c0,0.8-0.2,1.3-0.5,1.7c-0.3,0.4-0.8,0.7-1.3,0.9l2.2,4.5c0.2-0.4,0.3-0.8,0.4-1.3c0.1-0.5,0.1-1,0.1-1.6l1.2,0.7
								c0,0.9-0.1,1.6-0.2,2.3C617.1,438.5,616.8,439,616.6,439.5z M614,439.1c0.3,0,0.6-0.1,0.9-0.3l-2.5-5.3
								c-0.4,0.2-0.7,0.4-0.9,0.7c-0.2,0.3-0.3,0.7-0.3,1.2c0,0.3,0,0.7,0.1,1c0.1,0.3,0.2,0.7,0.4,1c0.2,0.3,0.4,0.6,0.6,0.8
								c0.2,0.3,0.5,0.4,0.7,0.6C613.3,439,613.7,439.1,614,439.1 M612.1,427.7c-0.2,0.2-0.3,0.5-0.3,0.9c0,0.1,0,0.3,0,0.4
								c0,0.1,0.1,0.3,0.1,0.5c0.1,0.2,0.2,0.4,0.3,0.7c0.1,0.3,0.3,0.6,0.5,1c0.4-0.1,0.7-0.3,1-0.5c0.2-0.2,0.4-0.5,0.4-0.9
								s-0.1-0.8-0.3-1.2c-0.2-0.4-0.5-0.7-0.8-0.8C612.6,427.6,612.3,427.6,612.1,427.7"/>
						</g>
						<g>
							<path class="st13" d="M572.2,427.2c0.9,0.5,1.6,1.2,2.2,2.1c0.6,0.9,1.1,1.9,1.4,3l-1.2,0.5c-0.1-0.5-0.3-0.9-0.5-1.3
								c-0.2-0.4-0.4-0.7-0.6-1c-0.2-0.3-0.4-0.5-0.7-0.8c-0.2-0.2-0.5-0.4-0.7-0.5c-0.5-0.3-0.9-0.4-1.3-0.3
								c-0.4,0.1-0.7,0.3-0.9,0.6c-0.3,0.3-0.4,0.8-0.6,1.3c-0.1,0.5-0.2,1.1-0.2,1.7c0,0.7,0.1,1.4,0.2,2.1c0.1,0.7,0.4,1.4,0.6,2
								c0.3,0.6,0.6,1.2,1,1.7c0.4,0.5,0.8,0.9,1.2,1.1c0.2,0.1,0.5,0.2,0.7,0.3c0.2,0.1,0.5,0.1,0.7,0c0.2-0.1,0.4-0.2,0.6-0.4
								c0.2-0.2,0.4-0.4,0.5-0.8l1.3,1.8c-0.2,0.4-0.4,0.8-0.6,1c-0.3,0.2-0.6,0.4-0.9,0.5c-0.3,0.1-0.7,0.1-1.1,0
								c-0.4-0.1-0.8-0.2-1.2-0.4c-0.7-0.4-1.3-1-1.8-1.7c-0.6-0.7-1-1.6-1.4-2.5c-0.4-0.9-0.7-1.9-0.9-2.8c-0.2-1-0.3-1.9-0.3-2.8
								c0-0.8,0.1-1.6,0.3-2.3c0.2-0.7,0.5-1.3,0.9-1.7c0.4-0.4,0.9-0.7,1.5-0.8C570.8,426.7,571.4,426.8,572.2,427.2z"/>
						</g>
						<g>
							<polygon class="st13" points="578.9,431.2 578.9,443.2 584.1,446.2 584.1,448.1 577.3,444.2 577.4,430.3 							"/>
						</g>
						<g>
							<polygon class="st13" points="586.9,435.9 586.9,449.7 585.4,448.9 585.4,435 							"/>
						</g>
						<g>
							<path class="st13" d="M595.9,443.9c0.1,0.6,0.2,1.2,0.2,1.8c0,0.6-0.1,1.1-0.2,1.6c-0.1,0.5-0.3,0.8-0.6,1.1
								c-0.3,0.3-0.6,0.4-0.9,0.5c-0.4,0.1-0.8-0.1-1.2-0.3l-2.6-1.5l0,4.8l-1.5-0.9l0-13.9l4.1,2.3c0.4,0.3,0.8,0.6,1.2,1.1
								c0.4,0.5,0.7,1,0.9,1.6C595.6,442.7,595.8,443.3,595.9,443.9z M594.5,445.8c0.1-0.3,0.1-0.6,0.1-1c0-0.4,0-0.8-0.1-1.1
								c-0.1-0.4-0.2-0.7-0.3-1c-0.1-0.3-0.3-0.6-0.5-0.8c-0.2-0.2-0.4-0.4-0.6-0.5l-2.4-1.4l0,5.2l2.5,1.5c0.2,0.1,0.4,0.2,0.6,0.1
								c0.2,0,0.3-0.1,0.5-0.3C594.3,446.3,594.4,446,594.5,445.8"/>
						</g>
						<g>
							<path class="st13" d="M604.1,445.6c0.7,0.4,1.3,0.9,1.8,1.5c0.5,0.6,1,1.3,1.4,2l-0.7,1.4c-0.1-0.2-0.2-0.4-0.4-0.7
								s-0.4-0.5-0.6-0.8c-0.2-0.3-0.5-0.5-0.8-0.8c-0.3-0.3-0.6-0.5-0.9-0.6c-0.6-0.3-1.1-0.4-1.4-0.3c-0.3,0.2-0.5,0.5-0.5,1.2
								c0,0.3,0,0.6,0.1,0.9c0.1,0.3,0.2,0.5,0.4,0.8c0.2,0.3,0.5,0.6,0.8,0.9c0.3,0.3,0.6,0.6,1,1c0.5,0.5,0.9,0.9,1.3,1.3
								c0.4,0.4,0.7,0.9,1,1.3c0.3,0.5,0.5,0.9,0.6,1.5c0.2,0.5,0.2,1.1,0.2,1.7c0,0.7-0.1,1.3-0.3,1.7c-0.2,0.4-0.4,0.7-0.8,0.8
								c-0.3,0.1-0.7,0.1-1.1,0.1c-0.4-0.1-0.9-0.3-1.4-0.6c-0.7-0.4-1.4-1-2.1-1.7c-0.7-0.7-1.3-1.5-1.9-2.5l0.7-1.5
								c0.1,0.2,0.3,0.5,0.5,0.9c0.2,0.3,0.5,0.7,0.8,1c0.3,0.3,0.6,0.7,1,1c0.4,0.3,0.7,0.6,1.1,0.8c0.6,0.3,1,0.4,1.4,0.3
								c0.3-0.1,0.5-0.5,0.5-1.1c0-0.4-0.1-0.7-0.2-1c-0.1-0.3-0.3-0.6-0.5-0.9c-0.2-0.3-0.5-0.6-0.8-0.9c-0.3-0.3-0.7-0.7-1.1-1.1
								c-0.5-0.5-0.9-0.9-1.3-1.3c-0.4-0.4-0.7-0.8-0.9-1.2c-0.2-0.4-0.4-0.9-0.5-1.3c-0.1-0.5-0.2-1-0.2-1.5c0-0.7,0.1-1.2,0.3-1.7
								c0.2-0.4,0.4-0.7,0.7-0.9c0.3-0.2,0.7-0.2,1.1-0.2C603.1,445.2,603.6,445.4,604.1,445.6z"/>
						</g>
						<g>
							<polygon class="st13" points="617.2,453.3 617.2,467.2 615.6,466.3 615.7,460.2 610.8,457.4 610.8,463.5 609.2,462.6 
								609.3,448.7 610.8,449.6 610.8,455.4 615.7,458.2 615.7,452.4 							"/>
						</g>
						<g>
							<path class="st13" d="M623.6,457l3.8,16.1l-1.6-0.9l-1-4.4l-3.7-2.2l-1,3.2l-1.6-0.9l3.9-11.6L623.6,457z M621.3,464.2
								l3.2,1.8l-1.5-6.9L621.3,464.2"/>
						</g>
						<g>
							<path class="st13" d="M633.9,471.6l2.3,6.6l-1.7-1l-2.1-6.1l-2.2-1.3l0,4.8l-1.5-0.9l0-13.9l4.2,2.4c0.4,0.3,0.8,0.6,1.2,1.1
								c0.4,0.5,0.7,1,0.9,1.6c0.3,0.6,0.5,1.2,0.6,1.8c0.1,0.6,0.2,1.2,0.2,1.8c0,0.5,0,0.9-0.1,1.3c-0.1,0.4-0.2,0.7-0.4,1
								c-0.2,0.3-0.4,0.5-0.6,0.6C634.4,471.6,634.2,471.6,633.9,471.6z M633.4,469.6c0.2,0,0.3-0.1,0.5-0.3
								c0.1-0.2,0.2-0.4,0.3-0.7c0.1-0.3,0.1-0.6,0.1-0.9c0-0.4,0-0.7-0.1-1.1c-0.1-0.4-0.2-0.7-0.3-1c-0.1-0.3-0.3-0.6-0.5-0.8
								c-0.2-0.2-0.4-0.4-0.6-0.5l-2.6-1.5l0,5.2l2.7,1.5C633,469.6,633.2,469.6,633.4,469.6"/>
						</g>
						<g>
							<polygon class="st13" points="639.2,466.1 639.2,479.9 637.7,479.1 637.7,465.2 							"/>
						</g>
						<g>
							<polygon class="st13" points="642.6,468 648.1,481.2 648.2,471.2 649.7,472.1 649.7,486 648.4,485.2 642.9,472.3 
								642.9,482.1 641.4,481.2 641.4,467.3 							"/>
						</g>
						<g>
							<path class="st13" d="M655.8,475.5c0.9,0.5,1.7,1.2,2.3,2.1c0.6,0.9,1.1,1.9,1.4,3l-1.2,0.5c-0.3-0.9-0.6-1.7-1.1-2.3
								c-0.4-0.6-0.9-1.1-1.5-1.4c-0.4-0.3-0.8-0.3-1.2-0.3c-0.4,0.1-0.7,0.3-0.9,0.6c-0.3,0.3-0.5,0.7-0.6,1.3
								c-0.1,0.5-0.2,1.1-0.2,1.8c0,0.7,0.1,1.4,0.2,2.1c0.2,0.7,0.4,1.4,0.6,2c0.3,0.6,0.6,1.2,1,1.6c0.4,0.5,0.8,0.8,1.2,1.1
								c1,0.6,1.9,0.4,2.6-0.5l0-1.5l-2-1.2l0-1.6l3.3,1.9l0,7l-1.3-0.7l0-1.7c-0.8,0.8-1.7,0.8-2.8,0.2c-0.6-0.4-1.2-0.9-1.8-1.6
								c-0.5-0.7-1-1.5-1.4-2.4c-0.4-0.9-0.7-1.8-0.9-2.8c-0.2-1-0.3-1.9-0.3-2.9c0-0.9,0.1-1.8,0.4-2.5c0.2-0.7,0.6-1.3,1-1.7
								c0.4-0.4,0.9-0.6,1.4-0.7C654.6,475,655.2,475.1,655.8,475.5z"/>
						</g>
					</g>
				</g>
			</g>
			<g>
				<g>
					<polygon class="st213" points="529.6,201.9 518.8,207.7 518.8,318 529.6,311.4 					"/>
					<polygon class="st214" points="356.3,102.3 529.6,201.9 518.8,207.7 345.2,108.4 					"/>
					<polygon class="st215" points="345.2,108.4 518.8,207.7 518.8,318 500.2,306.8 345.2,215.1 					"/>
				</g>
				<g>
					<g>
						<g>
							<polygon class="st13" points="406.9,165.2 406.9,167.2 403.7,165.3 403.6,177.3 402.1,176.4 402.1,164.4 398.9,162.6 
								398.9,160.6 							"/>
						</g>
						<g>
							<path class="st13" d="M413.5,177.7l2.3,6.6l-1.7-1l-2.1-6.1l-2.2-1.3l0,4.8l-1.5-0.9l0-13.9l4.2,2.4c0.4,0.3,0.8,0.6,1.2,1.1
								c0.4,0.5,0.7,1,0.9,1.6c0.3,0.6,0.5,1.2,0.6,1.8c0.1,0.6,0.2,1.2,0.2,1.8c0,0.5,0,0.9-0.1,1.3c-0.1,0.4-0.2,0.7-0.4,1
								c-0.2,0.3-0.4,0.5-0.6,0.6C414,177.7,413.8,177.7,413.5,177.7z M413,175.7c0.2,0,0.3-0.1,0.5-0.3c0.1-0.2,0.2-0.4,0.3-0.7
								c0.1-0.3,0.1-0.6,0.1-0.9c0-0.4,0-0.7-0.1-1.1c-0.1-0.4-0.2-0.7-0.3-1s-0.3-0.6-0.5-0.8c-0.2-0.2-0.4-0.4-0.6-0.5l-2.6-1.5
								l0,5.2l2.7,1.5C412.6,175.7,412.8,175.7,413,175.7"/>
						</g>
						<g>
							<path class="st13" d="M421.5,173.7l3.8,16.1l-1.6-0.9l-1-4.4l-3.7-2.2l-1,3.2l-1.6-0.9l3.9-11.6L421.5,173.7z M419.2,180.9
								l3.2,1.8l-1.5-6.9L419.2,180.9"/>
						</g>
						<g>
							<polygon class="st13" points="428.1,177.5 428,191.3 426.5,190.5 426.5,176.6 							"/>
						</g>
						<g>
							<polygon class="st13" points="431.4,179.4 436.9,192.6 437,182.6 438.5,183.5 438.5,197.4 437.2,196.6 431.7,183.7 
								431.7,193.5 430.2,192.6 430.2,178.7 							"/>
						</g>
						<g>
							<polygon class="st13" points="442.2,185.6 442.2,199.5 440.6,198.6 440.7,184.8 							"/>
						</g>
						<g>
							<polygon class="st13" points="445.6,187.6 451.1,200.8 451.1,190.8 452.6,191.7 452.6,205.5 451.3,204.8 445.9,191.9 
								445.9,201.7 444.3,200.8 444.4,186.9 							"/>
						</g>
						<g>
							<path class="st13" d="M458.8,195.1c0.9,0.5,1.7,1.2,2.3,2.1c0.6,0.9,1.1,1.9,1.4,3l-1.2,0.5c-0.3-0.9-0.6-1.7-1.1-2.3
								c-0.5-0.6-0.9-1.1-1.5-1.4c-0.4-0.3-0.8-0.4-1.2-0.3c-0.4,0.1-0.7,0.3-0.9,0.6c-0.3,0.3-0.5,0.7-0.6,1.3
								c-0.1,0.5-0.2,1.1-0.2,1.8c0,0.7,0.1,1.4,0.2,2.1c0.2,0.7,0.4,1.4,0.6,2c0.3,0.6,0.6,1.2,1,1.6c0.4,0.5,0.8,0.9,1.2,1.1
								c1,0.6,1.9,0.4,2.6-0.5l0-1.5l-2-1.2l0-1.6l3.3,1.9l0,7l-1.3-0.7l0-1.7c-0.8,0.8-1.7,0.8-2.8,0.2c-0.6-0.4-1.2-0.9-1.8-1.6
								c-0.5-0.7-1-1.5-1.4-2.4c-0.4-0.9-0.7-1.8-1-2.8c-0.2-1-0.3-1.9-0.3-2.8c0-0.9,0.1-1.8,0.4-2.5c0.2-0.7,0.6-1.3,1-1.7
								c0.4-0.4,0.9-0.6,1.4-0.7C457.5,194.6,458.1,194.7,458.8,195.1z"/>
						</g>
						<g>
							<path class="st13" d="M433.7,216.2l1.9,4l-2-1.1l-0.9-1.8c-0.4,0.3-0.8,0.4-1.3,0.4c-0.5,0-1-0.2-1.5-0.5
								c-0.5-0.3-0.9-0.6-1.3-1.1c-0.4-0.4-0.7-0.9-1-1.4c-0.3-0.5-0.5-1.1-0.6-1.6c-0.2-0.6-0.2-1.1-0.2-1.7c0-0.4,0.1-0.8,0.2-1.1
								c0.1-0.3,0.2-0.6,0.4-0.8c0.2-0.2,0.4-0.4,0.6-0.6c0.2-0.2,0.4-0.3,0.7-0.4c-0.2-0.4-0.4-0.8-0.5-1.2c-0.1-0.4-0.3-0.7-0.3-1
								c-0.1-0.3-0.2-0.6-0.2-0.8c0-0.2-0.1-0.5-0.1-0.7c0-0.5,0.1-0.9,0.2-1.2c0.1-0.3,0.3-0.6,0.5-0.7c0.2-0.2,0.5-0.2,0.8-0.2
								c0.3,0,0.7,0.1,1,0.4c0.3,0.2,0.6,0.4,0.9,0.7c0.3,0.3,0.6,0.6,0.8,1c0.2,0.4,0.4,0.8,0.5,1.2c0.1,0.5,0.2,0.9,0.2,1.4
								c0,0.8-0.2,1.3-0.5,1.7c-0.4,0.4-0.8,0.7-1.3,0.9l2.2,4.5c0.2-0.4,0.3-0.8,0.4-1.3c0.1-0.5,0.1-1,0.1-1.6l1.2,0.7
								c0,0.9-0.1,1.6-0.2,2.3C434.2,215.2,434,215.8,433.7,216.2z M431.1,215.9c0.3,0,0.6-0.1,0.9-0.3l-2.5-5.3
								c-0.4,0.2-0.7,0.4-0.9,0.7c-0.2,0.3-0.3,0.7-0.3,1.2c0,0.3,0,0.7,0.1,1c0.1,0.3,0.2,0.7,0.4,0.9c0.2,0.3,0.4,0.6,0.6,0.8
								s0.5,0.4,0.7,0.6C430.5,215.8,430.8,215.9,431.1,215.9 M429.2,204.5c-0.2,0.2-0.3,0.5-0.3,0.9c0,0.1,0,0.3,0,0.4
								c0,0.1,0.1,0.3,0.1,0.5c0.1,0.2,0.2,0.4,0.3,0.7c0.1,0.3,0.3,0.6,0.5,1c0.4-0.1,0.8-0.3,1-0.5c0.2-0.2,0.4-0.5,0.4-0.9
								c0-0.4-0.1-0.8-0.3-1.2c-0.2-0.4-0.5-0.7-0.8-0.8C429.7,204.3,429.4,204.3,429.2,204.5"/>
						</g>
						<g>
							<path class="st13" d="M376.1,196.4c0.9,0.5,1.7,1.2,2.3,2.1c0.6,0.9,1.1,1.9,1.4,3l-1.2,0.5c-0.3-0.9-0.6-1.7-1.1-2.3
								c-0.5-0.6-0.9-1.1-1.5-1.4c-0.4-0.3-0.8-0.4-1.2-0.3c-0.4,0.1-0.7,0.3-0.9,0.6c-0.3,0.3-0.5,0.7-0.6,1.3
								c-0.1,0.5-0.2,1.1-0.2,1.8c0,0.7,0.1,1.4,0.2,2.1c0.2,0.7,0.4,1.4,0.6,2c0.3,0.6,0.6,1.2,1,1.6c0.4,0.5,0.8,0.8,1.2,1.1
								c1,0.6,1.9,0.4,2.6-0.5l0-1.5l-2-1.2l0-1.6l3.3,1.9l0,7l-1.3-0.7l0-1.7c-0.8,0.8-1.7,0.8-2.8,0.2c-0.6-0.4-1.2-0.9-1.8-1.6
								c-0.5-0.7-1-1.5-1.4-2.4c-0.4-0.9-0.7-1.8-1-2.8c-0.2-1-0.3-1.9-0.3-2.8c0-0.9,0.1-1.8,0.4-2.5c0.2-0.7,0.6-1.3,1-1.7
								c0.4-0.4,0.9-0.6,1.4-0.7C374.8,195.8,375.4,196,376.1,196.4z"/>
						</g>
						<g>
							<path class="st13" d="M386,202.2l3.8,16.1l-1.6-0.9l-1-4.4l-3.7-2.2l-1,3.2l-1.6-0.9l3.9-11.6L386,202.2z M383.8,209.4
								l3.2,1.8l-1.5-6.9L383.8,209.4"/>
						</g>
						<g>
							<polygon class="st13" points="400.7,210.7 400.7,224.6 399.2,223.7 399.2,213.7 396.3,219.6 395.4,219.1 392.6,209.9 
								392.6,219.9 391,219 391.1,205.1 392.7,206 395.9,216.4 399.1,209.7 							"/>
						</g>
						<g>
							<polygon class="st13" points="409.4,215.7 409.4,217.6 404.4,214.8 404.4,218.7 408.7,221.2 408.7,223 404.4,220.5 
								404.4,224.8 409.5,227.7 409.5,229.7 402.9,225.8 402.9,211.9 							"/>
						</g>
						<g>
							<path class="st13" d="M419.8,230.3l2.3,6.6l-1.7-1l-2.1-6.1l-2.2-1.3l0,4.8l-1.5-0.9l0-13.9l4.2,2.4c0.4,0.3,0.8,0.6,1.2,1.1
								c0.4,0.5,0.7,1,0.9,1.6c0.3,0.6,0.5,1.2,0.6,1.8c0.2,0.6,0.2,1.2,0.2,1.8c0,0.5,0,0.9-0.1,1.3s-0.2,0.7-0.4,1
								c-0.2,0.3-0.4,0.5-0.6,0.6C420.4,230.3,420.1,230.3,419.8,230.3z M419.3,228.3c0.2,0,0.3-0.1,0.5-0.3
								c0.1-0.2,0.2-0.4,0.3-0.7c0.1-0.3,0.1-0.6,0.1-0.9c0-0.4,0-0.7-0.1-1.1c-0.1-0.4-0.2-0.7-0.3-1c-0.1-0.3-0.3-0.6-0.5-0.8
								c-0.2-0.2-0.4-0.4-0.6-0.5l-2.6-1.5l0,5.2l2.7,1.5C418.9,228.3,419.1,228.3,419.3,228.3"/>
						</g>
						<g>
							<polygon class="st13" points="430.1,227.7 430.1,229.6 425.2,226.7 425.1,230.7 429.5,233.2 429.5,235 425.1,232.5 
								425.1,236.7 430.2,239.7 430.2,241.6 423.6,237.8 423.6,223.9 							"/>
						</g>
						<g>
							<path class="st13" d="M438.7,235.5c0.1,0.6,0.2,1.2,0.2,1.8c0,0.6-0.1,1.1-0.2,1.6c-0.1,0.5-0.3,0.8-0.6,1.1
								c-0.3,0.3-0.6,0.4-0.9,0.5c-0.4,0-0.8-0.1-1.2-0.3l-2.6-1.5l0,4.8l-1.5-0.9l0-13.9l4.1,2.3c0.4,0.3,0.8,0.6,1.2,1.1
								c0.4,0.5,0.7,1,0.9,1.6C438.4,234.2,438.6,234.8,438.7,235.5z M437.3,237.3c0.1-0.3,0.1-0.6,0.1-1c0-0.4,0-0.8-0.1-1.1
								c-0.1-0.4-0.2-0.7-0.3-1s-0.3-0.6-0.5-0.8c-0.2-0.2-0.4-0.4-0.6-0.5l-2.4-1.4l0,5.2l2.5,1.5c0.2,0.1,0.4,0.2,0.6,0.1
								c0.2,0,0.3-0.1,0.5-0.3C437.1,237.8,437.2,237.6,437.3,237.3"/>
						</g>
						<g>
							<path class="st13" d="M448.6,242.7c0.2,1,0.3,1.9,0.3,2.8c0,0.9-0.1,1.7-0.4,2.5c-0.2,0.7-0.6,1.3-1,1.7
								c-0.4,0.4-0.9,0.7-1.5,0.7c-0.6,0.1-1.2-0.1-1.8-0.5c-0.7-0.4-1.3-1-1.9-1.7c-0.6-0.7-1-1.5-1.4-2.4
								c-0.4-0.9-0.7-1.8-0.9-2.8c-0.2-1-0.3-1.9-0.3-2.8c0-0.9,0.1-1.7,0.4-2.5c0.2-0.7,0.6-1.3,1-1.7c0.4-0.4,0.9-0.7,1.5-0.7
								c0.6-0.1,1.2,0.1,1.8,0.5c0.7,0.4,1.3,1,1.9,1.7c0.6,0.7,1,1.5,1.4,2.4C448.1,240.8,448.4,241.7,448.6,242.7z M447.1,246.3
								c0.1-0.5,0.2-1.1,0.2-1.7c0-0.7-0.1-1.3-0.2-2c-0.1-0.7-0.3-1.3-0.6-2c-0.3-0.6-0.6-1.2-0.9-1.7c-0.4-0.5-0.8-0.9-1.2-1.1
								c-0.5-0.3-0.9-0.4-1.3-0.3c-0.4,0.1-0.7,0.3-1,0.6c-0.3,0.3-0.5,0.7-0.6,1.3c-0.1,0.5-0.2,1.1-0.2,1.7c0,0.7,0.1,1.3,0.2,2
								c0.1,0.7,0.3,1.4,0.6,2c0.3,0.6,0.6,1.2,0.9,1.7c0.4,0.5,0.8,0.9,1.3,1.1c0.5,0.3,0.9,0.4,1.3,0.3c0.4-0.1,0.7-0.3,1-0.6
								C446.8,247.2,447,246.8,447.1,246.3"/>
						</g>
						<g>
							<path class="st13" d="M455.8,251.1l2.3,6.6l-1.7-1l-2.1-6.1l-2.2-1.3l0,4.8l-1.5-0.9l0-13.9l4.2,2.4c0.4,0.3,0.8,0.6,1.2,1.1
								c0.4,0.5,0.7,1,0.9,1.6c0.3,0.6,0.5,1.2,0.6,1.8c0.2,0.6,0.2,1.2,0.2,1.8c0,0.5,0,0.9-0.1,1.3c-0.1,0.4-0.2,0.7-0.4,1
								c-0.2,0.3-0.4,0.5-0.6,0.6C456.4,251.1,456.1,251.1,455.8,251.1z M455.3,249.1c0.2,0,0.3-0.1,0.5-0.3
								c0.1-0.2,0.2-0.4,0.3-0.7c0.1-0.3,0.1-0.6,0.1-0.9c0-0.4,0-0.7-0.1-1.1c-0.1-0.4-0.2-0.7-0.3-1c-0.1-0.3-0.3-0.6-0.5-0.8
								c-0.2-0.2-0.4-0.4-0.6-0.5l-2.6-1.5l0,5.2l2.7,1.5C454.9,249.1,455.1,249.1,455.3,249.1"/>
						</g>
						<g>
							<polygon class="st13" points="466.7,248.8 466.7,250.7 463.5,248.9 463.5,260.8 462,259.9 462,248 458.8,246.1 458.8,244.2 
															"/>
						</g>
						<g>
							<polygon class="st13" points="469.6,250.4 469.5,264.3 468,263.4 468.1,249.6 							"/>
						</g>
						<g>
							<polygon class="st13" points="473,252.4 478.5,265.6 478.5,255.6 480,256.5 480,270.3 478.7,269.6 473.3,256.7 473.2,266.4 
								471.7,265.6 471.8,251.7 							"/>
						</g>
						<g>
							<path class="st13" d="M486.2,259.9c0.9,0.5,1.7,1.2,2.3,2.1c0.6,0.9,1.1,1.9,1.4,3l-1.2,0.5c-0.3-0.9-0.6-1.7-1.1-2.3
								c-0.4-0.6-0.9-1.1-1.5-1.4c-0.4-0.3-0.8-0.4-1.2-0.3c-0.4,0.1-0.7,0.3-0.9,0.6c-0.3,0.3-0.5,0.7-0.6,1.3
								c-0.1,0.5-0.2,1.1-0.2,1.8c0,0.7,0.1,1.4,0.2,2.1c0.2,0.7,0.4,1.4,0.6,2c0.3,0.6,0.6,1.2,1,1.6c0.4,0.5,0.8,0.8,1.2,1.1
								c1,0.6,1.9,0.4,2.6-0.5l0-1.5l-2-1.2l0-1.6l3.3,1.9l0,7l-1.3-0.7l0-1.7c-0.8,0.8-1.7,0.8-2.8,0.2c-0.6-0.4-1.2-0.9-1.8-1.6
								c-0.5-0.7-1-1.5-1.4-2.4c-0.4-0.9-0.7-1.8-0.9-2.8c-0.2-1-0.3-1.9-0.3-2.9c0-0.9,0.1-1.8,0.4-2.5c0.2-0.7,0.6-1.3,1-1.7
								c0.4-0.4,0.9-0.6,1.4-0.7C484.9,259.4,485.5,259.5,486.2,259.9z"/>
						</g>
					</g>
				</g>
			</g>
			<g>
				<g>
					<polygon class="st216" points="712.4,309.5 701.7,315.3 701.7,425.6 712.4,419 					"/>
					<polygon class="st217" points="539.2,209.9 712.4,309.5 701.7,315.3 528.1,216 					"/>
					<linearGradient id="SVGID_1_" gradientUnits="userSpaceOnUse" x1="528.1005" y1="320.8015" x2="701.6863" y2="320.8015">
						<stop  offset="0" style="stop-color:#F4D556"/>
						<stop  offset="1" style="stop-color:#F4D556"/>
					</linearGradient>
					<polygon class="st218" points="528.1,216 701.7,315.3 701.7,425.6 683.1,414.4 528.1,322.7 					"/>
				</g>
				<g>
					<g>
						<g>
							<polygon class="st13" points="594.8,274.6 594.8,288.5 593.3,287.6 593.3,277.6 590.4,283.5 589.6,283 586.7,273.8 
								586.7,283.8 585.1,282.9 585.2,269 586.8,269.9 590,280.3 593.2,273.6 							"/>
						</g>
						<g>
							<polygon class="st13" points="603.5,279.6 603.5,281.5 598.5,278.6 598.5,282.6 602.9,285.1 602.9,286.9 598.5,284.4 
								598.5,288.7 603.6,291.6 603.6,293.5 597,289.7 597,275.8 							"/>
						</g>
						<g>
							<path class="st13" d="M613.1,289.4c0.2,1,0.3,1.9,0.3,2.9c0,1.1-0.1,2-0.3,2.7c-0.2,0.7-0.5,1.3-1,1.6
								c-0.4,0.4-0.9,0.6-1.5,0.6c-0.6,0-1.2-0.2-1.9-0.6l-3.4-2l0-13.9l3.4,2c0.8,0.4,1.5,1,2,1.7s1.1,1.5,1.5,2.3
								C612.6,287.5,612.9,288.4,613.1,289.4z M611.7,293.2c0.1-0.5,0.2-1.2,0.2-1.9c0-0.7-0.1-1.4-0.2-2.1
								c-0.1-0.7-0.3-1.3-0.6-1.9c-0.3-0.6-0.6-1.1-1-1.6s-0.8-0.9-1.3-1.1l-1.9-1.1l0,10l1.9,1.1c0.5,0.3,1,0.4,1.4,0.4
								c0.4,0,0.7-0.2,1-0.5C611.3,294.2,611.5,293.7,611.7,293.2"/>
						</g>
						<g>
							<polygon class="st13" points="616.6,287.1 616.6,301 615,300.1 615.1,286.3 							"/>
						</g>
						<g>
							<path class="st13" d="M622.8,290.6c0.9,0.5,1.6,1.2,2.2,2.1c0.6,0.9,1.1,1.9,1.4,3l-1.2,0.5c-0.1-0.5-0.3-0.9-0.5-1.3
								c-0.2-0.4-0.4-0.7-0.6-1c-0.2-0.3-0.5-0.5-0.7-0.8c-0.2-0.2-0.5-0.4-0.7-0.5c-0.5-0.3-0.9-0.4-1.3-0.3
								c-0.4,0.1-0.7,0.3-0.9,0.6c-0.3,0.3-0.4,0.8-0.6,1.3c-0.1,0.5-0.2,1.1-0.2,1.7c0,0.7,0.1,1.4,0.2,2.1c0.1,0.7,0.4,1.4,0.6,2
								c0.3,0.6,0.6,1.2,1,1.7c0.4,0.5,0.8,0.9,1.2,1.1c0.2,0.1,0.5,0.2,0.7,0.3c0.2,0.1,0.5,0.1,0.7,0c0.2-0.1,0.4-0.2,0.6-0.4
								c0.2-0.2,0.4-0.4,0.5-0.8l1.3,1.8c-0.2,0.4-0.4,0.8-0.6,1c-0.3,0.2-0.6,0.4-0.9,0.5c-0.3,0.1-0.7,0.1-1.1,0
								c-0.4-0.1-0.8-0.2-1.2-0.4c-0.7-0.4-1.3-1-1.8-1.7c-0.6-0.7-1-1.6-1.4-2.5c-0.4-0.9-0.7-1.9-0.9-2.8c-0.2-1-0.3-1.9-0.3-2.8
								c0-0.8,0.1-1.6,0.3-2.3c0.2-0.7,0.5-1.3,0.9-1.7c0.4-0.4,0.9-0.7,1.5-0.8C621.4,290,622.1,290.2,622.8,290.6z"/>
						</g>
						<g>
							<path class="st13" d="M632.2,296.1l3.8,16.1l-1.6-0.9l-1-4.4l-3.7-2.2l-1,3.2L627,307l3.9-11.6L632.2,296.1z M629.9,303.3
								l3.2,1.8l-1.5-6.9L629.9,303.3"/>
						</g>
						<g>
							<polygon class="st13" points="638.7,299.9 638.7,311.9 643.9,314.9 643.9,316.8 637.2,312.9 637.2,299 							"/>
						</g>
						<g>
							<path class="st13" d="M616.8,322.7l1.9,4l-2-1.1l-0.9-1.8c-0.4,0.3-0.8,0.4-1.3,0.4c-0.5,0-1-0.2-1.5-0.5
								c-0.5-0.3-0.9-0.6-1.3-1.1c-0.4-0.4-0.7-0.9-1-1.4c-0.3-0.5-0.5-1.1-0.6-1.6c-0.2-0.6-0.2-1.1-0.2-1.7c0-0.4,0.1-0.8,0.2-1.1
								c0.1-0.3,0.2-0.6,0.4-0.8c0.2-0.2,0.4-0.4,0.6-0.6c0.2-0.2,0.4-0.3,0.7-0.4c-0.2-0.4-0.4-0.8-0.5-1.2c-0.1-0.4-0.3-0.7-0.3-1
								c-0.1-0.3-0.2-0.6-0.2-0.8c0-0.2-0.1-0.5-0.1-0.7c0-0.5,0.1-0.9,0.2-1.2c0.1-0.3,0.3-0.6,0.5-0.7c0.2-0.2,0.5-0.2,0.8-0.2
								c0.3,0,0.7,0.1,1,0.4c0.3,0.2,0.6,0.4,0.9,0.7c0.3,0.3,0.6,0.6,0.8,1c0.2,0.4,0.4,0.8,0.5,1.2c0.1,0.4,0.2,0.9,0.2,1.4
								c0,0.8-0.2,1.3-0.5,1.7c-0.3,0.4-0.8,0.7-1.3,0.9l2.2,4.5c0.2-0.4,0.3-0.8,0.4-1.3c0.1-0.5,0.1-1,0.1-1.6l1.2,0.7
								c0,0.9-0.1,1.6-0.2,2.3C617.2,321.7,617,322.3,616.8,322.7z M614.2,322.3c0.3,0,0.6-0.1,0.9-0.3l-2.5-5.3
								c-0.4,0.2-0.7,0.4-0.9,0.7c-0.2,0.3-0.3,0.7-0.3,1.2c0,0.3,0,0.7,0.1,1c0.1,0.3,0.2,0.7,0.4,0.9c0.2,0.3,0.4,0.6,0.6,0.8
								c0.2,0.2,0.5,0.4,0.7,0.6C613.5,322.3,613.9,322.4,614.2,322.3 M612.2,311c-0.2,0.2-0.3,0.5-0.3,0.9c0,0.1,0,0.3,0,0.4
								s0.1,0.3,0.1,0.5c0.1,0.2,0.2,0.4,0.3,0.7c0.1,0.3,0.3,0.6,0.5,1c0.4-0.1,0.7-0.3,1-0.5c0.2-0.2,0.4-0.5,0.4-0.9
								c0-0.4-0.1-0.8-0.3-1.2c-0.2-0.4-0.5-0.7-0.8-0.8C612.8,310.8,612.5,310.8,612.2,311"/>
						</g>
						<g>
							<path class="st13" d="M570.9,312.6c0.2,0.6,0.2,1.2,0.2,1.8c0,0.6-0.1,1.1-0.2,1.6c-0.1,0.5-0.3,0.8-0.6,1.1
								c-0.3,0.3-0.6,0.4-0.9,0.5c-0.4,0-0.8-0.1-1.2-0.3l-2.6-1.5l0,4.8l-1.5-0.9l0-13.9l4.1,2.3c0.4,0.3,0.8,0.6,1.2,1.1
								c0.4,0.5,0.7,1,0.9,1.6C570.6,311.4,570.8,312,570.9,312.6z M569.5,314.5c0.1-0.3,0.1-0.6,0.1-1c0-0.4,0-0.8-0.1-1.1
								c-0.1-0.4-0.2-0.7-0.3-1c-0.1-0.3-0.3-0.6-0.5-0.8c-0.2-0.2-0.4-0.4-0.6-0.5l-2.4-1.4l0,5.2l2.5,1.5c0.2,0.1,0.4,0.2,0.6,0.1
								c0.2,0,0.3-0.1,0.5-0.3C569.3,315,569.4,314.7,569.5,314.5"/>
						</g>
						<g>
							<polygon class="st13" points="579.1,314.4 579.1,316.4 574.1,313.5 574.1,317.5 578.4,320 578.4,321.8 574.1,319.3 
								574,323.5 579.2,326.5 579.1,328.4 572.5,324.6 572.6,310.7 							"/>
						</g>
						<g>
							<path class="st13" d="M586.1,327.1l2.3,6.6l-1.7-1l-2.1-6.1l-2.2-1.3l0,4.8l-1.5-0.9l0-13.9l4.2,2.4c0.4,0.3,0.8,0.6,1.2,1.1
								c0.4,0.5,0.7,1,0.9,1.6c0.3,0.6,0.5,1.2,0.6,1.8c0.2,0.6,0.2,1.2,0.2,1.8c0,0.5,0,0.9-0.1,1.3c-0.1,0.4-0.2,0.7-0.4,1
								c-0.2,0.3-0.4,0.5-0.6,0.6C586.7,327.1,586.4,327.2,586.1,327.1z M585.6,325.1c0.2,0,0.3-0.1,0.5-0.3
								c0.1-0.2,0.2-0.4,0.3-0.7c0.1-0.3,0.1-0.6,0.1-0.9c0-0.4,0-0.7-0.1-1.1c-0.1-0.4-0.2-0.7-0.3-1c-0.1-0.3-0.3-0.6-0.5-0.8
								c-0.2-0.2-0.4-0.4-0.6-0.5l-2.6-1.5l0,5.2l2.7,1.5C585.2,325.1,585.4,325.2,585.6,325.1"/>
						</g>
						<g>
							<polygon class="st13" points="596.4,324.4 596.4,326.4 591.5,323.5 591.4,327.7 595.6,330.1 595.5,331.9 591.4,329.5 
								591.4,335.5 589.9,334.6 589.9,320.7 							"/>
						</g>
						<g>
							<path class="st13" d="M606,334.4c0.2,1,0.3,1.9,0.3,2.8c0,0.9-0.1,1.8-0.4,2.5c-0.2,0.7-0.6,1.3-1,1.7
								c-0.4,0.4-0.9,0.7-1.5,0.7c-0.6,0.1-1.2-0.1-1.8-0.5c-0.7-0.4-1.3-1-1.9-1.7c-0.6-0.7-1-1.5-1.4-2.4
								c-0.4-0.9-0.7-1.8-0.9-2.8c-0.2-1-0.3-1.9-0.3-2.8c0-0.9,0.1-1.7,0.4-2.5c0.2-0.7,0.6-1.3,1-1.7c0.4-0.4,0.9-0.7,1.5-0.7
								c0.6-0.1,1.2,0.1,1.8,0.5c0.7,0.4,1.3,1,1.9,1.7c0.6,0.7,1,1.5,1.4,2.4C605.5,332.5,605.8,333.4,606,334.4z M604.6,338
								c0.1-0.5,0.2-1.1,0.2-1.7c0-0.7-0.1-1.4-0.2-2c-0.1-0.7-0.3-1.3-0.6-2c-0.3-0.6-0.6-1.2-0.9-1.7c-0.4-0.5-0.8-0.9-1.2-1.1
								c-0.5-0.3-0.9-0.4-1.3-0.3c-0.4,0.1-0.7,0.3-1,0.6c-0.3,0.3-0.5,0.7-0.6,1.3c-0.1,0.5-0.2,1.1-0.2,1.7c0,0.7,0.1,1.3,0.2,2
								c0.1,0.7,0.3,1.4,0.6,2c0.3,0.6,0.6,1.2,1,1.7c0.4,0.5,0.8,0.9,1.3,1.1c0.5,0.3,0.9,0.4,1.3,0.3c0.4-0.1,0.7-0.3,1-0.6
								C604.2,338.9,604.4,338.5,604.6,338"/>
						</g>
						<g>
							<path class="st13" d="M613.2,342.8l2.3,6.6l-1.7-1l-2.1-6.1l-2.2-1.3l0,4.8l-1.5-0.9l0-13.9l4.2,2.4c0.4,0.3,0.8,0.6,1.2,1.1
								c0.4,0.5,0.7,1,0.9,1.6c0.3,0.6,0.5,1.2,0.6,1.8c0.1,0.6,0.2,1.2,0.2,1.8c0,0.5,0,0.9-0.1,1.3c-0.1,0.4-0.2,0.7-0.4,1
								c-0.2,0.3-0.4,0.5-0.6,0.6C613.8,342.8,613.5,342.8,613.2,342.8z M612.7,340.8c0.2,0,0.3-0.1,0.5-0.3
								c0.1-0.2,0.2-0.4,0.3-0.7c0.1-0.3,0.1-0.6,0.1-0.9c0-0.4,0-0.7-0.1-1.1c-0.1-0.4-0.2-0.7-0.3-1c-0.1-0.3-0.3-0.6-0.5-0.8
								c-0.2-0.2-0.4-0.4-0.6-0.5l-2.6-1.5l0,5.2l2.7,1.5C612.3,340.8,612.5,340.8,612.7,340.8"/>
						</g>
						<g>
							<polygon class="st13" points="626.7,342 626.7,355.8 625.1,355 625.2,345 622.3,350.9 621.4,350.4 618.6,341.2 618.5,351.1 
								617,350.3 617.1,336.4 618.7,337.3 621.9,347.7 625.1,341 							"/>
						</g>
						<g>
							<path class="st13" d="M633.1,345.6l3.8,16.1l-1.6-0.9l-1-4.4l-3.7-2.2l-1,3.2l-1.6-0.9l3.9-11.6L633.1,345.6z M630.8,352.8
								l3.2,1.8l-1.5-6.9L630.8,352.8"/>
						</g>
						<g>
							<polygon class="st13" points="639.3,349.2 644.8,362.4 644.8,352.4 646.4,353.3 646.3,367.2 645.1,366.5 639.6,353.5 
								639.6,363.3 638.1,362.4 638.1,348.5 							"/>
						</g>
						<g>
							<path class="st13" d="M652.6,356.8c0.9,0.5,1.6,1.2,2.2,2.1c0.6,0.9,1.1,1.9,1.4,3l-1.2,0.5c-0.1-0.5-0.3-0.9-0.5-1.3
								c-0.2-0.4-0.4-0.7-0.6-1c-0.2-0.3-0.4-0.6-0.7-0.8c-0.2-0.2-0.5-0.4-0.7-0.5c-0.5-0.3-0.9-0.4-1.3-0.3
								c-0.4,0.1-0.7,0.3-0.9,0.6c-0.3,0.3-0.4,0.8-0.6,1.3c-0.1,0.5-0.2,1.1-0.2,1.7c0,0.7,0.1,1.4,0.2,2.1c0.1,0.7,0.4,1.4,0.6,2
								c0.3,0.6,0.6,1.2,1,1.7c0.4,0.5,0.8,0.9,1.2,1.1c0.2,0.1,0.5,0.2,0.7,0.3c0.2,0.1,0.5,0.1,0.7,0c0.2-0.1,0.4-0.2,0.6-0.4
								c0.2-0.2,0.4-0.4,0.5-0.8l1.3,1.8c-0.2,0.4-0.4,0.8-0.6,1c-0.3,0.2-0.6,0.4-0.9,0.5c-0.3,0.1-0.7,0.1-1.1,0
								c-0.4-0.1-0.8-0.2-1.2-0.5c-0.7-0.4-1.3-1-1.8-1.7c-0.6-0.7-1-1.6-1.4-2.5c-0.4-0.9-0.7-1.8-0.9-2.8c-0.2-1-0.3-1.9-0.3-2.8
								c0-0.8,0.1-1.6,0.3-2.3c0.2-0.7,0.5-1.3,0.9-1.7c0.4-0.4,0.9-0.7,1.5-0.8C651.2,356.2,651.9,356.4,652.6,356.8z"/>
						</g>
						<g>
							<polygon class="st13" points="664.3,363.6 664.3,365.6 659.3,362.7 659.3,366.7 663.6,369.2 663.6,371 659.3,368.5 
								659.3,372.7 664.4,375.7 664.4,377.6 657.7,373.8 657.8,359.9 							"/>
						</g>
					</g>
				</g>
			</g>
			<g>
				<g>
					<polygon class="st219" points="613.8,137.4 603,143.2 603,253.5 613.8,246.9 					"/>
					<polygon class="st220" points="440.5,37.8 613.8,137.4 603,143.2 429.5,44 					"/>
					<polygon class="st221" points="429.5,44 603,143.2 603,253.5 584.5,242.3 429.5,150.6 					"/>
				</g>
				<g>
					<g>
						<g>
							<path class="st13" d="M462.1,84.3l3.8,16.1l-1.6-0.9l-1-4.4l-3.7-2.2l-1,3.2l-1.6-0.9l3.9-11.6L462.1,84.3z M459.9,91.5
								l3.2,1.8l-1.5-6.9L459.9,91.5"/>
						</g>
						<g>
							<path class="st13" d="M475,96c0.2,1,0.3,1.9,0.3,2.9c0,1.1-0.1,1.9-0.3,2.7c-0.2,0.7-0.5,1.3-1,1.6c-0.4,0.4-0.9,0.5-1.5,0.5
								c-0.6,0-1.2-0.2-1.9-0.6l-3.4-2l0-13.9l3.4,2c0.8,0.4,1.5,1,2,1.7c0.6,0.7,1.1,1.5,1.5,2.3C474.5,94.2,474.8,95.1,475,96z
								 M473.6,99.9c0.1-0.5,0.2-1.2,0.2-1.9c0-0.7-0.1-1.4-0.2-2.1c-0.1-0.7-0.3-1.3-0.6-1.9c-0.3-0.6-0.6-1.1-1-1.6
								c-0.4-0.5-0.8-0.9-1.3-1.1l-1.9-1.1l0,10l1.9,1.1c0.5,0.3,1,0.4,1.4,0.4c0.4,0,0.7-0.2,1-0.5
								C473.2,100.8,473.4,100.4,473.6,99.9"/>
						</g>
						<g>
							<polygon class="st13" points="486.6,98.5 486.6,112.4 485.1,111.5 485.1,101.5 482.2,107.4 481.4,106.9 478.5,97.7 
								478.5,107.7 476.9,106.8 477,92.9 478.6,93.9 481.8,104.2 485,97.5 							"/>
						</g>
						<g>
							<polygon class="st13" points="490.3,100.7 490.3,114.5 488.8,113.6 488.8,99.8 							"/>
						</g>
						<g>
							<polygon class="st13" points="493.7,102.6 499.2,115.8 499.3,105.8 500.8,106.7 500.8,120.5 499.5,119.8 494,106.9 
								494,116.7 492.5,115.8 492.5,101.9 							"/>
						</g>
						<g>
							<polygon class="st13" points="504.5,108.8 504.5,122.7 502.9,121.8 503,107.9 							"/>
						</g>
						<g>
							<path class="st13" d="M509.8,111.8c0.7,0.4,1.3,0.9,1.8,1.5c0.5,0.6,1,1.3,1.5,2l-0.7,1.4c-0.1-0.2-0.2-0.4-0.4-0.7
								c-0.2-0.3-0.4-0.5-0.6-0.8c-0.2-0.3-0.5-0.5-0.8-0.8c-0.3-0.3-0.6-0.5-0.9-0.6c-0.6-0.3-1.1-0.4-1.4-0.3
								c-0.3,0.2-0.5,0.5-0.5,1.2c0,0.3,0,0.6,0.1,0.9c0.1,0.3,0.2,0.5,0.5,0.8c0.2,0.3,0.4,0.6,0.7,0.8c0.3,0.3,0.7,0.6,1,1
								c0.5,0.5,0.9,0.9,1.3,1.3c0.4,0.4,0.7,0.9,1,1.3c0.3,0.5,0.5,0.9,0.6,1.5c0.2,0.5,0.2,1.1,0.2,1.7c0,0.7-0.1,1.3-0.3,1.7
								s-0.4,0.7-0.8,0.8c-0.3,0.1-0.7,0.2-1.1,0.1c-0.4-0.1-0.9-0.3-1.4-0.6c-0.7-0.4-1.4-1-2.1-1.7c-0.7-0.7-1.3-1.5-1.9-2.5
								l0.7-1.5c0.1,0.2,0.3,0.5,0.5,0.9c0.2,0.3,0.5,0.7,0.8,1c0.3,0.3,0.6,0.7,1,1c0.4,0.3,0.7,0.6,1.1,0.8c0.6,0.3,1,0.4,1.4,0.3
								c0.3-0.1,0.5-0.5,0.5-1.1c0-0.4-0.1-0.7-0.2-1c-0.1-0.3-0.3-0.6-0.5-0.9c-0.2-0.3-0.5-0.6-0.8-1c-0.3-0.3-0.7-0.7-1.1-1.1
								c-0.5-0.5-0.9-0.9-1.3-1.3c-0.4-0.4-0.7-0.8-0.9-1.2c-0.2-0.4-0.4-0.9-0.5-1.3c-0.1-0.5-0.2-1-0.2-1.5c0-0.7,0.1-1.2,0.3-1.7
								c0.2-0.4,0.4-0.7,0.7-0.9c0.3-0.2,0.7-0.2,1.1-0.2S509.3,111.5,509.8,111.8z"/>
						</g>
						<g>
							<polygon class="st13" points="522.1,119 522.1,120.9 518.9,119.1 518.9,131 517.4,130.1 517.4,118.2 514.2,116.3 
								514.2,114.4 							"/>
						</g>
						<g>
							<path class="st13" d="M528.7,131.4l2.3,6.6l-1.7-1l-2.1-6.1l-2.2-1.3l0,4.8l-1.5-0.9l0-13.9l4.2,2.4c0.4,0.3,0.8,0.6,1.2,1.1
								c0.4,0.5,0.7,1,0.9,1.6c0.3,0.6,0.5,1.2,0.6,1.8c0.2,0.6,0.2,1.2,0.2,1.8c0,0.5,0,0.9-0.1,1.3c-0.1,0.4-0.2,0.7-0.4,1
								c-0.2,0.3-0.4,0.5-0.6,0.6C529.3,131.4,529,131.5,528.7,131.4z M528.2,129.4c0.2,0,0.3-0.1,0.5-0.3c0.1-0.2,0.2-0.4,0.3-0.7
								c0.1-0.3,0.1-0.6,0.1-0.9c0-0.4,0-0.7-0.1-1.1c-0.1-0.4-0.2-0.7-0.3-1c-0.1-0.3-0.3-0.6-0.5-0.8c-0.2-0.2-0.4-0.4-0.6-0.5
								l-2.6-1.5l0,5.2l2.7,1.5C527.9,129.4,528,129.5,528.2,129.4"/>
						</g>
						<g>
							<path class="st13" d="M536.7,127.4l3.8,16.1l-1.6-0.9l-1-4.4l-3.7-2.2l-1,3.2l-1.6-0.9l3.9-11.6L536.7,127.4z M534.5,134.6
								l3.2,1.8l-1.5-6.9L534.5,134.6"/>
						</g>
						<g>
							<polygon class="st13" points="548.9,134.4 548.9,136.4 545.7,134.5 545.6,146.5 544.1,145.6 544.1,133.6 540.9,131.8 
								540.9,129.8 							"/>
						</g>
						<g>
							<polygon class="st13" points="551.7,136.1 551.7,150 550.2,149.1 550.2,135.2 							"/>
						</g>
						<g>
							<path class="st13" d="M562.1,146.5c0.2,1,0.3,1.9,0.3,2.8c0,0.9-0.1,1.8-0.4,2.5c-0.2,0.7-0.6,1.3-1,1.7
								c-0.4,0.4-0.9,0.6-1.5,0.7c-0.6,0.1-1.2-0.1-1.8-0.5c-0.7-0.4-1.3-1-1.9-1.7c-0.6-0.7-1-1.5-1.4-2.4
								c-0.4-0.9-0.7-1.8-0.9-2.8c-0.2-1-0.3-1.9-0.3-2.8c0-0.9,0.1-1.7,0.4-2.5c0.2-0.7,0.6-1.3,1-1.7c0.4-0.4,0.9-0.7,1.5-0.7
								c0.6-0.1,1.2,0.1,1.8,0.5c0.7,0.4,1.3,1,1.9,1.7c0.6,0.7,1,1.5,1.4,2.4C561.6,144.6,561.9,145.5,562.1,146.5z M560.7,150
								c0.1-0.5,0.2-1.1,0.2-1.7c0-0.7-0.1-1.3-0.2-2c-0.1-0.7-0.3-1.3-0.6-2c-0.3-0.6-0.6-1.2-0.9-1.7c-0.4-0.5-0.8-0.9-1.2-1.1
								c-0.5-0.3-0.9-0.4-1.3-0.3s-0.7,0.3-1,0.6c-0.3,0.3-0.5,0.7-0.6,1.3c-0.1,0.5-0.2,1.1-0.2,1.7c0,0.7,0.1,1.3,0.2,2
								c0.1,0.7,0.3,1.4,0.6,2c0.3,0.6,0.6,1.2,1,1.7c0.4,0.5,0.8,0.9,1.3,1.1c0.5,0.3,0.9,0.4,1.3,0.3c0.4-0.1,0.7-0.3,1-0.6
								C560.3,151,560.5,150.6,560.7,150"/>
						</g>
						<g>
							<polygon class="st13" points="565.3,143.9 570.8,157.1 570.8,147.1 572.3,148 572.3,161.8 571,161.1 565.6,148.2 565.5,158 
								564,157.1 564.1,143.2 							"/>
						</g>
						<g>
							<path class="st13" d="M517.8,152l1.9,4l-2-1.1l-0.9-1.8c-0.4,0.3-0.8,0.4-1.3,0.4c-0.5,0-1-0.2-1.5-0.5
								c-0.5-0.3-0.9-0.6-1.3-1.1c-0.4-0.4-0.7-0.9-1-1.4c-0.3-0.5-0.5-1.1-0.7-1.7c-0.2-0.6-0.2-1.1-0.2-1.7c0-0.4,0.1-0.8,0.2-1.2
								c0.1-0.3,0.2-0.6,0.4-0.8c0.2-0.2,0.4-0.4,0.6-0.6c0.2-0.2,0.4-0.3,0.7-0.4c-0.2-0.4-0.4-0.9-0.5-1.2c-0.1-0.4-0.3-0.7-0.3-1
								c-0.1-0.3-0.2-0.6-0.2-0.8c0-0.2-0.1-0.5-0.1-0.7c0-0.5,0.1-0.9,0.2-1.2c0.1-0.3,0.3-0.6,0.5-0.7c0.2-0.2,0.5-0.2,0.8-0.2
								c0.3,0,0.7,0.1,1,0.4c0.3,0.2,0.6,0.4,0.9,0.7c0.3,0.3,0.6,0.6,0.8,1c0.2,0.4,0.4,0.8,0.5,1.2c0.1,0.4,0.2,0.9,0.2,1.4
								c0,0.8-0.2,1.3-0.5,1.7c-0.4,0.4-0.8,0.7-1.3,0.9l2.2,4.5c0.2-0.4,0.3-0.8,0.4-1.3c0.1-0.5,0.1-1,0.1-1.6l1.2,0.7
								c0,0.9-0.1,1.6-0.2,2.3C518.3,151,518.1,151.5,517.8,152z M515.2,151.6c0.3,0,0.6-0.1,0.9-0.3l-2.5-5.3
								c-0.4,0.2-0.7,0.4-0.9,0.7c-0.2,0.3-0.3,0.7-0.3,1.2c0,0.3,0,0.7,0.2,1c0.1,0.3,0.2,0.6,0.4,0.9c0.2,0.3,0.4,0.6,0.6,0.8
								c0.2,0.2,0.5,0.4,0.7,0.6C514.6,151.5,514.9,151.6,515.2,151.6 M513.3,140.3c-0.2,0.2-0.3,0.5-0.3,0.9c0,0.1,0,0.3,0,0.4
								c0,0.1,0.1,0.3,0.1,0.5c0.1,0.2,0.2,0.4,0.3,0.7c0.1,0.3,0.3,0.6,0.5,1c0.4-0.2,0.7-0.3,1-0.5c0.2-0.2,0.4-0.5,0.4-0.9
								c0-0.4-0.1-0.8-0.3-1.2c-0.2-0.4-0.5-0.7-0.8-0.8C513.8,140.1,513.5,140.1,513.3,140.3"/>
						</g>
						<g>
							<path class="st13" d="M472.9,144c0.2,1,0.3,1.9,0.3,2.8c0,0.9-0.1,1.7-0.4,2.5c-0.2,0.7-0.6,1.3-1,1.7
								c-0.4,0.4-0.9,0.6-1.5,0.7c-0.6,0.1-1.2-0.1-1.8-0.5c-0.7-0.4-1.3-1-1.9-1.7c-0.6-0.7-1-1.5-1.4-2.4
								c-0.4-0.9-0.7-1.8-0.9-2.8c-0.2-1-0.3-1.9-0.3-2.8c0-0.9,0.1-1.7,0.4-2.5c0.2-0.7,0.6-1.3,1-1.7c0.4-0.4,0.9-0.6,1.5-0.7
								c0.6-0.1,1.2,0.1,1.8,0.5c0.7,0.4,1.3,1,1.9,1.7c0.6,0.7,1,1.5,1.4,2.4C472.4,142.1,472.7,143,472.9,144z M471.5,147.5
								c0.1-0.5,0.2-1.1,0.2-1.7c0-0.7-0.1-1.3-0.2-2c-0.1-0.7-0.3-1.3-0.6-2s-0.6-1.2-0.9-1.7c-0.4-0.5-0.8-0.9-1.2-1.1
								c-0.5-0.3-0.9-0.4-1.3-0.3c-0.4,0.1-0.7,0.3-1,0.6c-0.3,0.3-0.5,0.7-0.6,1.3c-0.1,0.5-0.2,1.1-0.2,1.7c0,0.7,0.1,1.3,0.2,2
								c0.1,0.7,0.3,1.4,0.6,2c0.3,0.6,0.6,1.2,0.9,1.7c0.4,0.5,0.8,0.9,1.3,1.1c0.5,0.3,0.9,0.4,1.3,0.3s0.7-0.3,1-0.6
								C471.2,148.5,471.4,148.1,471.5,147.5"/>
						</g>
						<g>
							<path class="st13" d="M480.2,152.4l2.3,6.6l-1.7-1l-2.1-6.1l-2.2-1.3l0,4.8l-1.5-0.9l0-13.9l4.2,2.4c0.4,0.3,0.8,0.6,1.2,1.1
								c0.4,0.5,0.7,1,0.9,1.6c0.3,0.6,0.5,1.2,0.6,1.8c0.2,0.6,0.2,1.2,0.2,1.8c0,0.5,0,0.9-0.1,1.3c-0.1,0.4-0.2,0.7-0.4,1
								c-0.2,0.3-0.4,0.5-0.6,0.6C480.7,152.3,480.4,152.4,480.2,152.4z M479.6,150.4c0.2,0,0.3-0.1,0.5-0.3
								c0.1-0.2,0.2-0.4,0.3-0.7c0.1-0.3,0.1-0.6,0.1-0.9c0-0.4,0-0.7-0.1-1.1c-0.1-0.4-0.2-0.7-0.3-1c-0.1-0.3-0.3-0.6-0.5-0.8
								c-0.2-0.2-0.4-0.4-0.6-0.5l-2.6-1.5l0,5.2l2.7,1.5C479.3,150.4,479.5,150.4,479.6,150.4"/>
						</g>
						<g>
							<path class="st13" d="M487.9,148.1c0.9,0.5,1.7,1.2,2.3,2.2c0.6,0.9,1.1,1.9,1.4,3l-1.2,0.5c-0.3-0.9-0.6-1.7-1.1-2.3
								c-0.4-0.6-0.9-1.1-1.5-1.4c-0.4-0.3-0.8-0.4-1.2-0.3c-0.4,0.1-0.7,0.3-0.9,0.6c-0.3,0.3-0.5,0.7-0.6,1.3
								c-0.1,0.5-0.2,1.1-0.2,1.8c0,0.7,0.1,1.4,0.2,2.1c0.2,0.7,0.4,1.4,0.6,2c0.3,0.6,0.6,1.2,1,1.6c0.4,0.5,0.8,0.8,1.2,1.1
								c1,0.6,1.9,0.4,2.6-0.5l0-1.5l-2-1.2l0-1.6l3.3,1.9l0,7l-1.3-0.7l0-1.7c-0.8,0.8-1.7,0.8-2.8,0.2c-0.6-0.4-1.2-0.9-1.8-1.6
								c-0.5-0.7-1-1.5-1.4-2.4c-0.4-0.9-0.7-1.8-0.9-2.8c-0.2-1-0.3-1.9-0.3-2.9c0-0.9,0.1-1.8,0.4-2.5c0.2-0.7,0.6-1.3,1-1.7
								s0.9-0.6,1.4-0.7C486.7,147.6,487.3,147.8,487.9,148.1z"/>
						</g>
						<g>
							<path class="st13" d="M497.9,154l3.8,16.1l-1.6-0.9l-1-4.4l-3.7-2.2l-1,3.2l-1.6-0.9l3.9-11.6L497.9,154z M495.6,161.2
								l3.2,1.8l-1.5-6.9L495.6,161.2"/>
						</g>
						<g>
							<polygon class="st13" points="504.1,157.6 509.6,170.8 509.6,160.8 511.2,161.7 511.1,175.5 509.9,174.8 504.4,161.9 
								504.4,171.6 502.9,170.8 502.9,156.9 							"/>
						</g>
						<g>
							<polygon class="st13" points="514.9,163.8 514.9,177.7 513.3,176.8 513.4,162.9 							"/>
						</g>
						<g>
							<polygon class="st13" points="524,169.1 524,170.7 518.2,177.7 524,181 524,183 516.3,178.5 516.3,176.8 522.2,170 
								516.5,166.7 516.5,164.7 							"/>
						</g>
						<g>
							<path class="st13" d="M529.7,172.4l3.8,16.1l-1.6-0.9l-1-4.4l-3.7-2.2l-1,3.2l-1.6-0.9l3.9-11.6L529.7,172.4z M527.5,179.6
								l3.2,1.8l-1.5-6.9L527.5,179.6"/>
						</g>
						<g>
							<polygon class="st13" points="541.9,179.4 541.9,181.3 538.7,179.4 538.6,191.4 537.1,190.5 537.1,178.6 533.9,176.7 
								533.9,174.8 							"/>
						</g>
						<g>
							<polygon class="st13" points="544.7,181 544.7,194.9 543.2,194 543.2,180.1 							"/>
						</g>
						<g>
							<path class="st13" d="M555.1,191.4c0.2,1,0.3,1.9,0.3,2.8c0,0.9-0.1,1.7-0.4,2.5c-0.2,0.7-0.6,1.3-1,1.7s-0.9,0.6-1.5,0.7
								c-0.6,0.1-1.2-0.1-1.8-0.5c-0.7-0.4-1.3-1-1.9-1.7c-0.6-0.7-1-1.5-1.4-2.4c-0.4-0.9-0.7-1.8-0.9-2.8c-0.2-1-0.3-1.9-0.3-2.8
								c0-0.9,0.1-1.7,0.4-2.5c0.2-0.7,0.6-1.3,1-1.7c0.4-0.4,0.9-0.7,1.5-0.7c0.6-0.1,1.2,0.1,1.8,0.5c0.7,0.4,1.3,1,1.9,1.7
								c0.6,0.7,1,1.5,1.4,2.4C554.6,189.5,554.9,190.5,555.1,191.4z M553.7,195c0.1-0.5,0.2-1.1,0.2-1.7c0-0.7-0.1-1.3-0.2-2
								c-0.1-0.7-0.3-1.3-0.6-2c-0.3-0.6-0.6-1.2-0.9-1.7c-0.4-0.5-0.8-0.9-1.2-1.1c-0.5-0.3-0.9-0.4-1.3-0.3
								c-0.4,0.1-0.7,0.3-1,0.6c-0.3,0.3-0.5,0.8-0.6,1.3c-0.1,0.5-0.2,1.1-0.2,1.7c0,0.7,0.1,1.3,0.2,2c0.1,0.7,0.3,1.4,0.6,2
								c0.3,0.6,0.6,1.2,1,1.7c0.4,0.5,0.8,0.9,1.3,1.1c0.5,0.3,0.9,0.4,1.3,0.3c0.4-0.1,0.7-0.3,1-0.6
								C553.3,195.9,553.5,195.5,553.7,195"/>
						</g>
						<g>
							<polygon class="st13" points="558.3,188.8 563.8,202 563.8,192 565.3,192.9 565.3,206.8 564,206.1 558.6,193.1 558.5,202.9 
								557,202 557.1,188.1 							"/>
						</g>
					</g>
				</g>
			</g>
		</g>
	</g>
	<g>
		<g>
			<g>
				<path class="st28" d="M452.5,537.9c17.4,6.1,36.1,12.8,32.4,25.3c-2.3,7.7-24.6,9.1-41.6-0.4c-8.7-4.9-2.2-6.7-3.1-8.1
					c-1.4-2.3-19.5-7.6-20-7.7c-11.9-3.6-22.6-7.3-26.2-12.1c-3.3-4.4,1-6,8.3-6.1C409.6,528.6,431.8,530.7,452.5,537.9z"/>
				<g>
					<path class="st47" d="M412.8,508.7c-0.1-0.1-0.9-1.3-3.2-1c-2.4,0.4-4.5,2-5.2,2.8c-0.7,0.9-1,2.1-1,3
						c-0.1,1.6,1.5,5.1,2.4,6.8c0,0,1.4,2.7,1.6,5.8c0.1,2-0.8,5-0.3,8.2c0.4,2.2,2.8,5.4,4.8,6.8c2,1.4,5,2.2,6.3,1.7
						c1.2-0.5,1.2-3.2-0.2-7.4c-1.4-4.2-1.9-8.1-1.2-10.5c0.7-2.4,4.2-6.3,3.9-8.1C420,513.2,414.2,509.3,412.8,508.7z"/>
					<path class="st48" d="M412.1,541.7c-2.1-1.4-4.1-5-4.5-7.8c0-1.1-0.2-2.3,0.8-2.4c1.2-0.1,0.6,3.2,4.5,4.9
						c2.5,1.1,2.3-1,3.4-1.6c0.8-0.4,1-0.2,1.3,0.1c0.2,0.4,1.1,2.4,1.2,2.7c1.7,3.3,1.2,4.6,0,5.1c-0.2,0.1-3.6,0.4-3.9,0.4
						C414.3,542.9,413.4,542.5,412.1,541.7z"/>
					<path class="st31" d="M414.1,543.7c-6-1-7.1-7.2-7.4-9.4c-0.5-3.2-0.8-6.5-1-8.4c-0.2-3.2-0.8-5.9-0.8-5.9
						c-0.9-1.8-1.7-5.4-1.7-7c0-1.7,0.7-2.6,1.4-3.5c0.5-0.7,3-1.4,4.1-1.7c0,0.5-1.3,1.7-1.9,2.4c-1.1,1.3-1.8,1.7-2.3,3.9
						c-0.3,1.2,0.7,3.9,1.7,5.4c0.9,1.5,1.3,6.2,1.4,8.3c0.1,2.1,0.4,3.2,0.9,6.2c0.5,2.9,1.9,6,4.1,7.5c3.3,2.1,6,1.4,7.2,0.5
						C419.4,543.6,416.5,544.1,414.1,543.7z"/>
					<path class="st48" d="M414.4,532.8c-0.9-1.5-0.3-2.6-0.8-6.3c-0.3-2.2-0.1-3.5,0-4.6c0.2-1.9,1.9-2.4,3-2.5
						c0.6-0.1,2.1-0.1,3.5-0.7c0.9-0.1,1.1,0.9-1.2,4c-1.1,1.5-2.3,2.4-2.1,5.9c-0.1,0.9,0.5,4.6-0.4,4.8
						C415,533.6,415.2,534.2,414.4,532.8z"/>
					<path class="st31" d="M412.9,525.1c0,0,0.7,0.4,1.5,0.4c0.8,0,1.2,0,2.2-0.4c0.8-0.3,1.4-1,1.3-0.5c0,0.3,0.2,0.8-1.2,1.4
						c-1.6,0.7-3.5,0.3-3.7,0.1C412.6,525.9,412.6,525.2,412.9,525.1z"/>
					<path class="st31" d="M413,525.2c0,0,0.3,0.7,1,1.1c0.6,0.4,1.1,0.6,2,0.6c0.9,0,1.2-0.7,1.1-0.2c0,0.4-0.1,0.9-1.7,1
						c-1.7,0.1-2.9-1.5-2.9-1.9C412.6,525.5,412.8,525.2,413,525.2z"/>
					<path class="st31" d="M412.9,527.4c0,0,0.3,0.6,1.1,0.8c0.7,0.1,1.2,0,1.9-0.2c0.9-0.3,0.8-0.8,1.2-0.5c0,0,0.4,0.5-1.1,1.3
						c-1.6,0.8-2.9,0-3.1-0.2C412.6,528.2,412.6,527.5,412.9,527.4z"/>
					<path class="st31" d="M413,527.6c0,0,0.4,0.8,1,1.2c0.6,0.4,0.8,0.6,1.7,0.5c0.9-0.1,1-0.4,1.2-0.3c0.3,0.1,0.2,0.9-1.4,1.1
						c-1.7,0.2-2.8-1.4-2.9-1.7C412.6,528,412.7,527.6,413,527.6z"/>
					<path class="st31" d="M412.9,530.3c0,0,0.5,0.6,1.1,0.9c0.6,0.3,0.8,0.4,1.7,0.2c0.9-0.2,1.4-1,1.3-0.5c0,0.3,0,0.9-1.5,1.3
						c-1.6,0.4-2.7-0.8-2.8-1.1C412.7,530.9,412.7,530.3,412.9,530.3z"/>
					<path class="st31" d="M412.5,530.1c0,0,0.7,0.3,1.4,0.4c0.8,0,1.2,0.2,2.1-0.4c0.9-0.5,0.4-0.8,0.9-0.7c0.2,0,0.3,0.6-1.2,1.6
						c-1.5,1-3,0.1-3.2-0.1C412.4,530.6,412.3,530.2,412.5,530.1z"/>
					<path class="st31" d="M413.2,532.6c0,0,0.6,0.4,1.2,0.4c0.6,0,1-0.1,1.7-0.7c0.7-0.5,0.6-1.3,0.6-0.8c0,0.5,0.1,1.2-0.9,1.8
						c-1.1,0.7-2.3,0.4-2.5,0.2C413.2,533.3,413,532.7,413.2,532.6z"/>
				</g>
				<path class="st49" d="M490.2,385.3c0,0,4.8,0.9,4.8,7.4c0,6.6-6.1,19.6-6.1,19.6s-11.3,2.7-17.2-4.3
					C466.9,402.5,490.2,385.3,490.2,385.3z"/>
				<path class="st45" d="M461.5,434.5c2.9,1.5,24.3,9.7,33,15.4c3.7,2.4,8,9.9-0.1,17.2c-4.5,4-26.2,26.9-26.2,26.9
					c-1.5,0.6-7,2.1-8.5,0.3c-0.9-1.1-1.8-3.1,0.2-6.2c0.3-0.4,2.1-4.3,5-9c3.9-6.5,5.5-14.5,15.2-16.7c0.9-0.2,0.1-0.6-0.7-0.9
					c-0.4-0.1-30.4-9.6-31.4-10.5c-5.1-4.7,3.6-11.8,3.6-11.8L461.5,434.5z"/>
				<path class="st46" d="M443,453c0,0,15,4.8,18.3,6.5c4.9,2.6,9.7,6,9.7,6s10.7-5.5,14.7-13.4c1.7-3.4,1.5-6.6,0.9-7
					c-4.4-2.9-27.1-10.7-27.1-10.7L443,453z"/>
				<path class="st45" d="M457,447.8c-2.8,12-16.7,35.8-18.1,39.3c-0.5,1.3-3.1,4.7-7,10.2c-4.6,6.4-14,19.9-14,19.9
					c-0.3,0.5-2.5,1.2-3.6,0.9c-3.6-1.1-4.8-5.2-4.3-6.8c0,0,1.4-4.5,3.9-10.2c2.7-6.2,2.5-12.4,12.1-19.2
					c1.3-0.9,7.6-30.1,10.5-40.5c2.6-9.5,12.7-15.6,18.5-16.8C457.9,423.8,457.4,446.3,457,447.8z"/>
				<path class="st49" d="M462.4,441.9L449.6,469c0,0-2.2,1.7-6.7,0.6c-14-3.4-16-7.9-16-7.9s6.1-10,7.6-17.5
					c1.5-7.4,7.6-14.3,10.8-16.7c5.2-4,12.4-3.9,12.4-3.9L462.4,441.9z"/>
				<path class="st50" d="M426.9,443.1c0,0,8.1-3.7,18.3-27.2c5.9-13.5,11.6-21.2,13.7-23.3c5.9-5.7,21.5-10.3,21.5-10.3l9.8,3
					c0,0,4.3,5.4,2.2,13.1c-1.5,5.6-6,13.3-19.7,33.6c-2.6,3.9,2.5,5.2,1.9,7.9c-0.4,2.1-5.9,11.7-27.9,10.2
					C440.1,449.6,426.8,444.3,426.9,443.1z"/>
				<path class="st51" d="M486.3,396.4c-2.7,1.4-6.6-1.1-8-3.9c-2.3-4.9,1.5-9.6,1.7-9.9l4.6-9.1l9.9,11.8l-6.3,6.7
					C488.2,391.9,488.6,395.2,486.3,396.4z"/>
				<path class="st51" d="M490.1,437c1.9,0.3,2.5-3.2,2.8-4.9c0.1-0.6,5,3.7,5.1-0.9c0,0-1.3-1.8-3.5-3c-0.2-0.1-1-0.5-2.5,0.4
					c-4,2.4-4.4,3.8-4.7,5.6C486.9,435.8,488.2,436.7,490.1,437z"/>
				<path class="st45" d="M486.9,432.8c0,0,2.1-1,5-1c1.2,0,3.7-0.4,4.3-0.5c0.5-0.1,0.5-1.6,0.5-1.6s1.1-1.5,3.8,1.9
					c0.9,1.1,0.8,3.3,0.8,3.3c-0.4,1.8-1.6,4.2-1.8,4.5c-1.2,2.7-4.6,1.8-4.6,1.8l-7.1-1.7C485.1,439.4,486.9,432.8,486.9,432.8z"/>
				<path class="st45" d="M492.3,439.1c-3.6,0.9-15.6,2-20.8,2.2c-2.4,0.1-14.9,0.2-17.2-4c-0.6-1.1-1-6.5-0.9-8.9
					c0.3-9.1,5.6-31.3,5.6-31.3c0.1-1.1,1.3-1.2,4.6-1.9c6.5-1.4,9.9,2.3,8,9.5c-4.3,16.4-6,23-5.6,24.4c0.2,0.6,23,3.5,23,3.5
					S495.7,438.2,492.3,439.1z"/>
				<path class="st54" d="M468.9,416.1c0,0,3.2-11.7,3.3-15.8c0-4.1-2.5-9.8-8.4-8.9c-4.7,0.7-7.7,6.1-8.2,8.1
					c-1.3,4.7-4.4,15.4-4.4,15.4s4.1,1.1,9,1.5C466.6,416.8,468.9,416.1,468.9,416.1z"/>
				<g>
					<path class="st47" d="M471.7,491.7c0.5-0.1,0.8,0.7,0.5,2.1c-0.7,2.6-0.4,2.8,0.2,4.4c0.9,2.9,7.3,9.4,8.3,11.4
						c0.5,1.1,0.6,2.4,0.3,3.2c-0.2,0.5-1.1,1.8-1.6,1.9c-1.3,0.4-3.6-0.2-5.1-0.9c-2.9-1.3-8.8-6.3-8.8-6.3
						c-0.5-0.8-12.5-14.6-12.5-14.6s1.1-3.5,5.6-5.9c0,0,2.8-1.3,2.3,0.5c-1.8,6.4,5.5,7.2,5.5,7.2s0.4-3.8,1.7-2.9
						C469.1,492.6,469.9,491.9,471.7,491.7z"/>
					<path class="st48" d="M481,509.5c-0.1-0.3-0.7-1-1.1-1.4c-0.6-0.5-2.4-3-2.5-0.9c-0.3,5.1-7.7-0.8-9.8-1.4
						c-0.8-0.2-2.5,0.4,0.2,3.3c0.1,0.1,3.8,3,6.1,3.8c3.3,1.3,4.8,1.9,5.4,1.7c0.5-0.2,1.4-1.4,1.6-1.9
						C481.2,512,481.5,510.7,481,509.5z"/>
					<path class="st55" d="M480.9,512.7c-0.8,1-4.1,1.4-6.5,0.7c-5.5-1.6-14-11.4-17.6-15.8c-1-1.2-2.2-3-1.6-5.1c1.4-4.8,1-4,1-4
						s-1.9,1.3-2.9,3.3c0,0-1.4,2.4-0.5,3.7c0.5,0.7,2.6,3.3,6.9,7.2c3.3,3,7.2,9.1,13.4,11.7c1.5,0.6,5.3,1.3,6.8,0.4
						C480.3,514.4,481,512.6,480.9,512.7z"/>
					<g>
						<path class="st31" d="M468.6,498.4c0,0,0.7,0,1.3-0.3c0.6-0.4,0.9-0.7,1.4-1.5c0.5-0.8,0.4-1.3,0.5-0.9
							c0.1,0.2,0.3,0.6-0.3,1.8c-0.8,1.5-2.3,1.7-2.5,1.6C468.8,499.1,468.5,498.6,468.6,498.4z"/>
						<path class="st31" d="M468.8,498.4c0,0,0.6,0.4,1.3,0.5c0.7,0,0.9,0,1.6-0.4c0.7-0.4,0.6-0.5,0.7-0.5c0.4,0.1,0.5,0.5-0.6,1.3
							c-1.2,0.8-2.8,0.1-3-0.2C468.6,498.8,468.6,498.5,468.8,498.4z"/>
						<path class="st31" d="M469.9,500.5c0,0,0.7,0.1,1.2-0.1c0.6-0.3,0.9-0.8,1.2-1.2c0.4-0.7,0.1-0.6,0.2-0.6c0.3,0,0.6,0.4,0,1.4
							c-0.7,1.3-2,1.5-2.2,1.4C470.1,501.2,469.8,500.7,469.9,500.5z"/>
						<path class="st31" d="M470,500.5c0,0,0.5,0.3,1.1,0.3c0.6,0,0.7,0,1.4-0.4c0.5-0.3,0.6-0.6,0.7-0.7c0.2-0.1,0.5,0.6-0.7,1.3
							c-0.8,0.5-2.2,0.3-2.4,0.2C469.9,501,469.8,500.6,470,500.5z"/>
						<path class="st31" d="M471,502.7c0,0,0.7,0.2,1.3,0.2c0.6,0,0.9,0.1,1.4-0.5c0.6-0.5,0.5-0.9,0.6-0.9c0.2,0,0.6,0.6-0.4,1.5
							c-1,1-2.5,0.5-2.7,0.3C471.1,503.3,470.8,502.8,471,502.7z"/>
						<path class="st31" d="M471,502.6c0,0,0.7,0.1,1.2-0.3c0.5-0.3,0.7-0.6,0.9-1c0.2-0.5,0.2-1,0.3-1.1c0.1-0.2,0.7,0,0.2,1.4
							c-0.5,1.5-1.8,1.7-2.1,1.7C471.3,503.3,470.8,502.8,471,502.6z"/>
						<path class="st31" d="M472.3,504.3c0,0,0.6,0.1,1.1-0.2c0.5-0.3,0.7-0.6,1-1.3c0.3-0.7-0.1-1.3,0.1-0.9
							c0.2,0.3,0.6,0.8,0.1,1.8c-0.5,1-1.6,1.3-1.8,1.2C472.6,504.9,472.2,504.5,472.3,504.3z"/>
					</g>
				</g>
				<g>
					<path class="st45" d="M494.2,363.8L494.2,363.8l-9.5-0.1l-0.3,17.2c0.1,1.2,0,2.3,0.2,3.3c0.2,1.1,0.7,2.1,2,3.1
						c0,0,1.7,1.4,3.9,2.4c1.2,0.6,2.5,1.6,5.6,1.5c3-0.1,4.1-2.7,4.5-4.3c0.8-3.1,4-19,4-19l-0.5-5.6L494.2,363.8z"/>
					<path class="st62" d="M502.6,359.8c1.8,1.6,3.3,3.5,2.9,5.8c-0.2,1.5-0.5,2.1-3.6,1.6c-3.4-0.5-5.6,2.9-5.8,2.8
						c0,0-0.2-3-0.1-3.1c0.1-0.1-2.2,3-2.2,3c-0.2,0.1-0.8-1.3-1.1-1.2c-3,0.7-4.3,0.8-5.3,4.2c0,0-0.8,4.1-1.7,4
						c-0.8,0-0.7-0.4-1-1.3c0,0-0.2-3.1-2.7-2c-1.7,0.7-0.6,4.9,0.9,5.1l-2.5,2.8c-0.2,0.1,0.5-1.3-0.2-2.8c-0.8-1.6-1.5-3.6-2-4.7
						c-2.3-5.6-0.9-11.2,2.6-14.7c1.1-1.1,5.7-3.8,5.7-4.5c0-0.1,0.9,0.6,2.1,0.5c3.8,0,2.1-1.7,2.1-1.7c1-0.2,3.4,1.8,3.6,2
						c1.4,1.1,1.4-0.6,1.4-0.6C497.3,355.7,502.6,359.8,502.6,359.8z"/>
					<path class="st45" d="M482.6,372.6c2.5,0,2.7,3.1,2.7,3.1l0,4.2c0,0-0.1,1.1-1.1,1.2c-1.4,0.3-2-1-2.6-2.3
						c0-0.1-0.8-2.1-0.9-2.2C480,375,480.3,372.6,482.6,372.6z"/>
				</g>
				<path class="st50" d="M435.7,492c-1.4,0.2-4.5,0.2-7.8-2.9c-1.9-1.8-2.1-5-1.9-7.3c0,0-0.1,0.1-0.1,0.1
					c-9.6,6.7-9.4,12.9-12.1,19.2c-2.5,5.8-3.9,10.2-3.9,10.2c-0.5,1.7,0.8,5.7,4.3,6.8c1.1,0.3,3.3-0.4,3.6-0.9
					c0,0,9.5-13.6,14-19.9C433.4,495.2,434.7,493.4,435.7,492z"/>
				<path class="st49" d="M480,462.5c-9.6,2.2-11.2,10.2-15.1,16.6c-2.8,4.7-4.7,8.6-5,9c-2,3.1-1,5.1-0.2,6.2
					c1.4,1.8,7,0.3,8.5-0.3c0,0,21.7-22.9,26.2-26.9c1.6-1.4,2.7-2.9,3.4-4.3C495.2,465.3,488.2,470,480,462.5z"/>
			</g>
		</g>
	</g>
	<g>
		<g>
			<g>
				<polygon class="st13" points="543.2,478 539.9,486.9 549.2,481.5 550.9,482.4 537.9,490 536.5,489.2 539.8,480.4 530.6,485.7 
					528.9,484.8 541.9,477.2 				"/>
			</g>
			<g>
				<path class="st13" d="M535.8,478.4c-0.6,0.6-1.2,1.1-2.1,1.6c-0.9,0.5-1.8,0.9-2.9,1.2c-1,0.3-2.1,0.5-3.1,0.6
					c-1,0.1-2.1,0.1-3-0.1c-1-0.1-1.8-0.4-2.5-0.8c-0.7-0.4-1.2-0.9-1.5-1.5c-0.2-0.6-0.3-1.2-0.1-1.8c0.2-0.6,0.5-1.2,1.1-1.8
					c0.6-0.6,1.3-1.1,2.1-1.6c0.9-0.5,1.8-0.9,2.9-1.2c1-0.3,2.1-0.5,3.1-0.6c1.1-0.1,2.1-0.1,3,0.1c1,0.1,1.8,0.4,2.5,0.8
					c0.7,0.4,1.2,0.9,1.4,1.5c0.2,0.6,0.2,1.2,0,1.8C536.7,477.2,536.3,477.8,535.8,478.4z M530.1,479.9c0.7-0.2,1.4-0.5,1.9-0.9
					c0.6-0.4,1.1-0.8,1.5-1.2c0.4-0.4,0.7-0.8,0.8-1.3c0.2-0.4,0.2-0.8,0-1.2c-0.1-0.4-0.5-0.7-0.9-1c-0.5-0.3-1.1-0.5-1.8-0.6
					s-1.4-0.1-2.1,0c-0.7,0.1-1.4,0.3-2.1,0.5c-0.7,0.2-1.4,0.5-2,0.9c-0.6,0.4-1.1,0.7-1.6,1.2c-0.4,0.4-0.7,0.8-0.9,1.3
					c-0.2,0.4-0.2,0.8,0,1.2c0.1,0.4,0.5,0.7,1,1c0.5,0.3,1.1,0.5,1.8,0.6c0.7,0.1,1.4,0.1,2.1,0
					C528.7,480.3,529.4,480.2,530.1,479.9"/>
			</g>
			<g>
				<polygon class="st13" points="528.6,469.5 515.6,477.1 513.9,476.1 523.3,470.7 513.1,473 512.1,472.5 516.1,466.5 506.7,472 
					505.1,471 518.1,463.5 519.9,464.5 515.4,471.1 526.8,468.5 				"/>
			</g>
			<g>
				<polygon class="st13" points="554.9,484.7 541.9,492.3 540.3,491.3 553.2,483.8 				"/>
			</g>
			<g>
				<path class="st13" d="M571.2,498.9c-0.6,0.6-1.2,1.1-2.1,1.6c-0.9,0.5-1.8,0.9-2.9,1.2c-1,0.3-2.1,0.5-3.1,0.6
					c-1,0.1-2,0.1-3-0.1c-1-0.1-1.8-0.4-2.5-0.8c-0.7-0.4-1.2-0.9-1.5-1.5c-0.2-0.6-0.3-1.2-0.1-1.8c0.2-0.6,0.5-1.2,1.1-1.8
					c0.6-0.6,1.3-1.1,2.1-1.6c0.9-0.5,1.8-0.9,2.9-1.2c1-0.3,2.1-0.5,3.1-0.6c1-0.1,2.1-0.1,3,0.1c1,0.1,1.8,0.4,2.5,0.8
					c0.7,0.4,1.2,0.9,1.4,1.5c0.2,0.6,0.2,1.2,0,1.8C572.1,497.7,571.8,498.3,571.2,498.9z M565.5,500.4c0.7-0.2,1.4-0.5,1.9-0.9
					c0.6-0.4,1.1-0.8,1.5-1.2c0.4-0.4,0.7-0.8,0.8-1.3c0.2-0.4,0.1-0.8,0-1.2c-0.1-0.4-0.5-0.7-0.9-1c-0.5-0.3-1.1-0.5-1.8-0.6
					c-0.7-0.1-1.4-0.1-2.1,0c-0.7,0.1-1.4,0.3-2.2,0.5c-0.7,0.2-1.4,0.5-1.9,0.9c-0.6,0.4-1.1,0.7-1.6,1.2c-0.4,0.4-0.7,0.8-0.9,1.3
					c-0.2,0.4-0.2,0.8,0,1.2c0.1,0.4,0.5,0.7,1,1c0.5,0.3,1.1,0.5,1.8,0.6c0.7,0.1,1.4,0.1,2.1,0
					C564.1,500.8,564.8,500.6,565.5,500.4"/>
			</g>
			<g>
				<path class="st13" d="M575.1,505.7l-2.5,4.3l-1.9-1.1l2.2-4l-2.4-1.4l-4.5,2.6l-1.6-1l13-7.6l4.6,2.6c0.5,0.3,0.8,0.6,0.9,1
					c0.2,0.4,0.2,0.8,0.1,1.2c-0.1,0.4-0.3,0.8-0.7,1.2c-0.3,0.4-0.8,0.7-1.3,1c-0.4,0.3-0.9,0.5-1.4,0.6c-0.5,0.2-1,0.3-1.5,0.4
					c-0.5,0.1-1,0.1-1.5,0.1C576,505.9,575.5,505.8,575.1,505.7z M576.1,504.5c0.3,0,0.7,0,1,0c0.4,0,0.7-0.1,1.1-0.3
					c0.4-0.1,0.7-0.3,1.1-0.5c0.3-0.2,0.6-0.4,0.8-0.6c0.2-0.2,0.3-0.4,0.4-0.7c0.1-0.2,0.1-0.4,0-0.6c-0.1-0.2-0.2-0.4-0.4-0.5
					l-2.8-1.6l-4.9,2.8l2.9,1.7C575.5,504.3,575.8,504.4,576.1,504.5"/>
			</g>
			<g>
				<polygon class="st13" points="565,490.5 563.2,491.6 559.7,489.6 548.5,496.1 546.8,495.1 558,488.6 554.5,486.6 556.3,485.5 
									"/>
			</g>
			<g>
				<polygon class="st13" points="619.1,521.8 601.9,526.9 600.5,526.1 609.3,516.1 611.1,517.1 603.8,525 617.4,520.8 				"/>
			</g>
			<g>
				<path class="st13" d="M595.4,512.7c-0.6,0.6-1.3,1.1-2.2,1.7c-1,0.6-2,1-3.1,1.4c-1,0.3-2.1,0.5-3.1,0.6c-1,0.1-2,0-2.9-0.2
					c-0.9-0.2-1.8-0.5-2.6-0.9l-3.7-2.1l13-7.6l3.7,2.1c0.8,0.5,1.4,1,1.7,1.6s0.4,1.1,0.2,1.7C596.4,511.5,596,512.1,595.4,512.7z
					 M589.5,514.3c0.7-0.2,1.4-0.6,2.1-1c0.7-0.4,1.2-0.8,1.7-1.2c0.4-0.4,0.7-0.8,0.8-1.2c0.1-0.4,0.1-0.8-0.1-1.2
					c-0.2-0.4-0.6-0.7-1.1-1l-2.1-1.2l-9.4,5.5l2.1,1.2c0.5,0.3,1.2,0.5,1.8,0.6c0.7,0.1,1.4,0.1,2.1,0
					C588,514.8,588.7,514.6,589.5,514.3"/>
			</g>
			<g>
				<polygon class="st13" points="608.5,515.7 606.7,516.7 601.3,513.6 597.6,515.8 602.3,518.5 600.6,519.5 595.9,516.8 
					591.9,519.1 597.5,522.3 595.7,523.3 588.5,519.2 601.5,511.6 				"/>
			</g>
			<g>
				<path class="st13" d="M653.8,544.9c-0.3,0.4-0.8,0.7-1.3,1c-0.6,0.3-1.2,0.6-1.8,0.8c-0.7,0.2-1.3,0.3-2,0.4
					c-0.7,0.1-1.3,0.1-1.9,0c-0.6-0.1-1.2-0.3-1.6-0.5l-2.8-1.6l-4.5,2.6l-1.6-1l13-7.6l4.4,2.5c0.5,0.3,0.8,0.6,0.9,1
					c0.2,0.4,0.2,0.8,0.1,1.1C654.4,544.1,654.1,544.5,653.8,544.9z M649.7,545.5c0.4-0.1,0.7-0.3,1.1-0.5c0.4-0.2,0.7-0.4,0.9-0.7
					c0.2-0.2,0.3-0.4,0.4-0.7c0-0.2,0-0.4,0-0.6c-0.1-0.2-0.2-0.3-0.5-0.5l-2.6-1.5l-4.9,2.8l2.7,1.6c0.2,0.1,0.5,0.2,0.8,0.3
					c0.3,0,0.6,0,1,0C649,545.7,649.3,545.6,649.7,545.5"/>
			</g>
			<g>
				<polygon class="st13" points="699,567.9 697.2,569 693.7,567 682.5,573.5 680.9,572.5 692.1,566 688.6,564 690.4,562.9 				"/>
			</g>
			<g>
				<polygon class="st13" points="681.3,557.7 677.9,566.6 687.3,561.2 689,562.1 676,569.7 674.6,568.9 677.8,560.1 668.7,565.5 
					667,564.5 680,557 				"/>
			</g>
			<g>
				<polygon class="st13" points="678.1,555.9 676.3,556.9 670.9,553.8 667.2,555.9 671.9,558.6 670.2,559.6 665.5,556.9 
					661.5,559.2 667.1,562.4 665.3,563.5 658.1,559.3 671.1,551.8 				"/>
			</g>
			<g>
				<polygon class="st13" points="668.7,550.4 655.7,558 654,557 663.4,551.6 653.2,553.9 652.3,553.4 656.2,547.4 646.9,552.9 
					645.2,551.9 658.2,544.4 660,545.4 655.5,552 666.9,549.4 				"/>
			</g>
			<g>
				<path class="st13" d="M642.9,540.3c-0.6,0.6-1.2,1.1-2.1,1.6c-0.9,0.5-1.8,0.9-2.9,1.2c-1,0.3-2.1,0.5-3.1,0.6
					c-1,0.1-2,0.1-3-0.1s-1.8-0.4-2.5-0.8c-0.7-0.4-1.2-0.9-1.5-1.5c-0.2-0.6-0.3-1.2-0.1-1.8c0.2-0.6,0.5-1.2,1.1-1.8
					c0.6-0.6,1.3-1.1,2.1-1.6c0.9-0.5,1.8-0.9,2.9-1.2c1-0.3,2.1-0.5,3.1-0.6c1-0.1,2.1-0.1,3,0.1c1,0.1,1.8,0.4,2.5,0.8
					c0.7,0.4,1.2,0.9,1.4,1.5c0.2,0.6,0.2,1.2,0,1.8C643.8,539.1,643.4,539.7,642.9,540.3z M637.2,541.8c0.7-0.2,1.4-0.5,1.9-0.9
					c0.6-0.4,1.1-0.8,1.5-1.2c0.4-0.4,0.7-0.8,0.8-1.3c0.2-0.4,0.1-0.8,0-1.2c-0.1-0.4-0.5-0.7-0.9-1c-0.5-0.3-1.1-0.5-1.8-0.6
					c-0.7-0.1-1.4-0.1-2.1,0c-0.7,0.1-1.4,0.3-2.2,0.5c-0.7,0.2-1.4,0.5-1.9,0.9c-0.6,0.4-1.1,0.7-1.6,1.2c-0.4,0.4-0.7,0.8-0.9,1.3
					c-0.2,0.4-0.2,0.8,0,1.2c0.1,0.4,0.5,0.7,1,1c0.5,0.3,1.1,0.5,1.8,0.6c0.7,0.1,1.4,0.1,2.1,0C635.8,542.2,636.5,542,637.2,541.8
					"/>
			</g>
			<g>
				<polygon class="st13" points="631,528.7 619.8,535.2 625.4,538.4 623.6,539.5 616.4,535.3 629.4,527.7 				"/>
			</g>
			<g>
				<polygon class="st13" points="627.5,526.6 625.6,527.7 620.2,524.5 616.5,526.7 621.2,529.4 619.5,530.4 614.8,527.7 610.9,530 
					616.4,533.2 614.6,534.2 607.4,530.1 620.4,522.5 				"/>
			</g>
		</g>
	</g>
	<g>
		<g>
			<g class="st15">
				<g>
					<path class="st13" d="M262.1,439.6c1,0.3,1.9,0.8,2.6,1.3c0.8,0.5,1.5,1.1,1.9,1.8c0.5,0.6,0.8,1.3,0.9,1.9
						c0.1,0.6,0,1.3-0.3,1.9c-0.3,0.6-0.8,1.1-1.6,1.5c-0.8,0.5-1.7,0.7-2.7,0.9c-1,0.1-2,0.1-3,0c-1-0.1-2.1-0.3-3-0.7
						c-1-0.3-1.9-0.8-2.7-1.3c-0.8-0.5-1.5-1.1-1.9-1.8c-0.5-0.6-0.8-1.3-0.9-1.9c-0.1-0.6,0-1.3,0.3-1.9c0.3-0.6,0.8-1.1,1.6-1.5
						c0.8-0.4,1.7-0.7,2.7-0.9c1-0.1,2-0.1,3.1,0C260.1,439,261.1,439.3,262.1,439.6z M264.3,443.1c-0.4-0.4-0.8-0.8-1.4-1.2
						c-0.6-0.4-1.2-0.7-1.9-1c-0.7-0.3-1.4-0.4-2.1-0.5c-0.7-0.1-1.4-0.1-2.1,0c-0.7,0.1-1.3,0.3-1.8,0.6c-0.5,0.3-0.9,0.7-1.1,1.1
						c-0.2,0.4-0.2,0.9-0.1,1.3c0.1,0.4,0.4,0.9,0.7,1.3c0.4,0.4,0.8,0.8,1.4,1.2c0.6,0.4,1.2,0.7,1.9,1c0.7,0.3,1.4,0.4,2.1,0.5
						c0.7,0.1,1.4,0.1,2.1,0c0.7-0.1,1.3-0.3,1.8-0.6c0.5-0.3,0.9-0.7,1.1-1.1c0.2-0.4,0.2-0.9,0.1-1.3
						C264.9,444,264.6,443.5,264.3,443.1"/>
				</g>
				<g>
					<polygon class="st13" points="242.9,445.9 244.6,447 238.9,450.3 242.4,452.6 247.3,449.7 248.9,450.8 244,453.6 247.7,456.1 
						253.6,452.7 255.3,453.8 247.7,458.2 235.5,450.2 					"/>
				</g>
			</g>
			<g>
				<polygon class="st13" points="224.9,456.3 240,458.4 231.2,452.7 233,451.6 245.2,459.7 243.7,460.5 228.9,458.5 237.4,464.1 
					235.7,465.1 223.5,457.1 				"/>
			</g>
			<g>
				<polygon class="st13" points="221,458.5 233.2,466.6 231.5,467.6 219.3,459.6 				"/>
			</g>
			<g>
				<polygon class="st13" points="216.8,461 229,469 227.2,470 218.4,464.3 221.8,470.5 220.8,471.1 210.9,468.6 219.6,474.4 
					217.9,475.4 205.7,467.4 207.6,466.3 218.7,469.1 214.9,462.1 				"/>
			</g>
			<g>
				<path class="st13" d="M208.9,474.9l7.3,1.5l-2,1.1l-6.7-1.4l-2.6,1.5l4.2,2.8l-1.7,1l-12.2-8l4.8-2.8c0.5-0.3,1.1-0.5,1.7-0.6
					c0.7-0.1,1.3-0.1,2,0c0.7,0.1,1.3,0.2,2,0.4c0.6,0.2,1.2,0.5,1.7,0.8c0.4,0.3,0.8,0.6,1,0.9c0.3,0.3,0.5,0.6,0.6,0.9
					c0.1,0.3,0.2,0.6,0.1,0.9C209.2,474.3,209.1,474.6,208.9,474.9z M206.8,474.2c0.1-0.2,0.1-0.4,0-0.6c-0.1-0.2-0.2-0.4-0.4-0.7
					c-0.2-0.2-0.4-0.4-0.8-0.6c-0.3-0.2-0.6-0.4-1-0.5c-0.4-0.1-0.7-0.2-1.1-0.3c-0.4,0-0.7,0-1.1,0c-0.3,0-0.6,0.1-0.8,0.3l-3,1.7
					l4.5,3l3.1-1.8C206.6,474.6,206.7,474.4,206.8,474.2"/>
			</g>
			<g>
				<polygon class="st13" points="193.3,474.6 194.9,475.7 189.2,479 192.7,481.3 197.6,478.4 199.2,479.5 194.3,482.3 198,484.8 
					203.9,481.4 205.6,482.5 198,486.9 185.8,478.9 				"/>
			</g>
			<g>
				<polygon class="st13" points="184.3,479.7 186,480.9 182.3,483 192.8,489.9 191,490.9 180.6,484 176.9,486.1 175.2,485 				"/>
			</g>
			<g>
				<path class="st13" d="M168.2,493.6c1,0.4,1.9,0.8,2.7,1.4c0.9,0.6,1.6,1.2,2.1,1.9c0.5,0.6,0.8,1.3,0.8,1.9
					c0.1,0.6-0.1,1.2-0.5,1.8c-0.4,0.6-1,1.1-1.8,1.6l-3.9,2.3l-12.2-8l3.9-2.3c0.9-0.5,1.8-0.9,2.8-1c1-0.2,2-0.2,3-0.1
					C166.2,493.1,167.2,493.3,168.2,493.6z M170.6,497.3c-0.4-0.4-0.9-0.9-1.5-1.3c-0.6-0.4-1.3-0.8-2-1c-0.7-0.3-1.4-0.4-2.1-0.5
					c-0.7-0.1-1.4-0.1-2,0.1c-0.7,0.1-1.3,0.3-1.9,0.7l-2.2,1.3l8.8,5.8l2.2-1.3c0.6-0.3,1-0.7,1.2-1.1c0.2-0.4,0.3-0.8,0.2-1.3
					C171.2,498.2,171,497.8,170.6,497.3"/>
			</g>
			<g>
				<polygon class="st13" points="174.1,485.6 175.8,486.7 170.1,490 173.6,492.3 178.5,489.4 180.1,490.5 175.2,493.4 178.9,495.8 
					184.8,492.4 186.5,493.6 178.9,497.9 166.7,489.9 				"/>
			</g>
			<g class="st15">
				<g>
					<polygon class="st13" points="310.1,407.1 322.2,415.2 320.5,416.2 308.3,408.2 					"/>
				</g>
				<g>
					<polygon class="st13" points="306.8,409 308.5,410.1 304.8,412.3 315.3,419.2 313.5,420.2 303.1,413.3 299.4,415.4 
						297.7,414.3 					"/>
				</g>
				<g>
					<path class="st13" d="M292.6,417.1c1-0.6,2.1-0.9,3.3-1c1.2-0.1,2.4,0,3.5,0.3l-0.4,1.5c-0.5-0.2-1-0.3-1.5-0.3
						c-0.5,0-0.9,0-1.3,0c-0.4,0-0.8,0.1-1.1,0.2c-0.3,0.1-0.6,0.2-0.9,0.4c-0.6,0.3-0.9,0.7-1.1,1.1c-0.2,0.4-0.2,0.9-0.1,1.3
						c0.1,0.4,0.4,0.9,0.8,1.3c0.4,0.4,0.8,0.8,1.4,1.2c0.6,0.4,1.3,0.7,2,1c0.7,0.3,1.4,0.4,2.2,0.5c0.7,0.1,1.4,0.1,2.1,0
						c0.7-0.1,1.3-0.3,1.8-0.6c0.3-0.1,0.5-0.3,0.7-0.5c0.2-0.2,0.4-0.4,0.5-0.7c0.1-0.3,0.1-0.5,0.1-0.8c0-0.3-0.1-0.6-0.4-0.9
						l2.4-0.2c0.3,0.4,0.4,0.8,0.5,1.2c0,0.4,0,0.8-0.2,1.2c-0.2,0.4-0.4,0.7-0.7,1.1c-0.3,0.3-0.7,0.6-1.1,0.9
						c-0.8,0.4-1.7,0.7-2.7,0.9c-1,0.1-2,0.1-3.1,0c-1.1-0.1-2.1-0.4-3.1-0.7c-1-0.3-1.9-0.8-2.7-1.3c-0.7-0.5-1.3-1-1.8-1.7
						c-0.5-0.6-0.8-1.2-0.9-1.9c-0.1-0.6,0-1.3,0.3-1.9C291.2,418.1,291.8,417.6,292.6,417.1z"/>
				</g>
				<g>
					<polygon class="st13" points="286.1,421 287.8,422.1 282.1,425.4 285.5,427.7 290.5,424.8 292.1,425.9 287.1,428.7 
						290.9,431.2 296.7,427.8 298.4,428.9 290.8,433.3 278.6,425.3 					"/>
				</g>
			</g>
			<g>
				<path class="st13" d="M275.6,435.7c0.9,0.2,1.8,0.5,2.5,1c0.5,0.3,0.8,0.7,1,1c0.2,0.4,0.3,0.7,0.3,1.1c0,0.4-0.2,0.7-0.5,1
					c-0.3,0.3-0.6,0.6-1.1,0.9l-5.3,3.1l-12.2-8l5.7-3.3c0.4-0.2,0.8-0.4,1.3-0.4c0.5-0.1,1-0.1,1.5,0c0.5,0.1,1,0.2,1.5,0.4
					c0.5,0.2,0.9,0.4,1.3,0.6c0.6,0.4,1,0.8,1.3,1.3c0.2,0.5,0.2,1,0,1.4C273.8,435.6,274.7,435.6,275.6,435.7z M276.6,438.1
					c-0.1-0.2-0.3-0.4-0.6-0.5c-0.2-0.2-0.5-0.3-0.8-0.4c-0.3-0.1-0.6-0.2-0.9-0.2c-0.3,0-0.6,0-0.9,0c-0.3,0-0.5,0.1-0.8,0.2
					l-3.7,2.1l3.7,2.5l3.5-2c0.2-0.1,0.4-0.3,0.5-0.5c0.1-0.2,0.1-0.4,0.1-0.6C276.8,438.5,276.7,438.3,276.6,438.1 M263.8,435.9
					l3.6,2.4l3.2-1.9c0.2-0.1,0.4-0.3,0.5-0.4c0.1-0.2,0.1-0.3,0.1-0.5c0-0.2-0.1-0.4-0.2-0.6c-0.1-0.2-0.3-0.4-0.6-0.5
					c-0.5-0.3-1.1-0.6-1.7-0.6c-0.6-0.1-1.1,0-1.5,0.3L263.8,435.9"/>
			</g>
			<g>
				<path class="st13" d="M276.3,426.7l6.2,4.1c0.9,0.6,1.7,1.2,2.4,1.7c0.7,0.6,1.1,1.1,1.4,1.6c0.3,0.5,0.3,1,0.1,1.5
					c-0.2,0.5-0.8,1-1.6,1.5c-0.9,0.5-2,0.8-3.2,0.9l-1.2-1.3c0.3,0,0.7-0.1,1.2-0.2c0.5-0.1,1-0.3,1.4-0.6c0.5-0.3,0.8-0.6,0.9-0.9
					c0.1-0.3,0-0.6-0.2-0.9c-0.2-0.3-0.6-0.7-1.1-1.1c-0.5-0.4-1.1-0.8-1.9-1.3l-6.2-4.1L276.3,426.7z"/>
			</g>
			<g class="st15">
				<g>
					<path class="st13" d="M336.1,392c0.8-0.4,1.6-0.8,2.5-0.9c0.9-0.2,1.8-0.3,2.6-0.3l0.8,1.5c-0.2,0-0.5,0-0.9,0
						c-0.3,0-0.7,0.1-1.1,0.1c-0.4,0.1-0.8,0.2-1.2,0.3c-0.4,0.1-0.8,0.3-1.2,0.5c-0.7,0.4-1.1,0.8-1.1,1.2
						c-0.1,0.4,0.2,0.8,0.7,1.1c0.3,0.2,0.6,0.3,0.9,0.4c0.3,0.1,0.6,0.1,1,0c0.4,0,0.8-0.1,1.2-0.3c0.5-0.1,1-0.3,1.5-0.5
						c0.7-0.2,1.4-0.4,2-0.5c0.6-0.1,1.2-0.2,1.8-0.2c0.6,0,1.1,0,1.7,0.2c0.6,0.1,1.1,0.4,1.7,0.8c0.6,0.4,1.1,0.8,1.3,1.3
						c0.2,0.4,0.3,0.8,0.2,1.2s-0.3,0.8-0.7,1.1c-0.4,0.4-0.8,0.7-1.4,1c-0.8,0.5-1.8,0.9-2.9,1.1c-1.1,0.3-2.2,0.4-3.4,0.4
						l-0.8-1.6c0.3,0,0.6,0,1.1,0c0.4,0,0.9-0.1,1.4-0.2c0.5-0.1,1-0.2,1.5-0.4c0.5-0.2,1-0.4,1.4-0.6c0.7-0.4,1.1-0.8,1.1-1.2
						c0.1-0.4-0.1-0.8-0.6-1.1c-0.3-0.2-0.6-0.3-1-0.4c-0.3-0.1-0.7-0.1-1.1,0c-0.4,0.1-0.9,0.1-1.4,0.3c-0.5,0.1-1.1,0.3-1.7,0.5
						c-0.7,0.2-1.4,0.4-1.9,0.5c-0.6,0.1-1.1,0.2-1.7,0.2c-0.5,0-1-0.1-1.5-0.2s-1-0.4-1.4-0.7c-0.6-0.4-1-0.8-1.3-1.2
						c-0.3-0.4-0.4-0.8-0.3-1.3c0-0.4,0.2-0.8,0.6-1.2C335,392.7,335.5,392.3,336.1,392z"/>
				</g>
				<g>
					<polygon class="st13" points="330.5,395.3 332.2,396.4 326.5,399.7 330,402 334.9,399.2 336.5,400.2 331.6,403.1 335.3,405.5 
						341.1,402.2 342.8,403.3 335.3,407.7 323.1,399.6 					"/>
				</g>
				<g>
					<polygon class="st13" points="321.7,400.4 329.5,411 328,411.8 311.4,406.4 313.2,405.3 326.3,409.8 319.9,401.5 					"/>
				</g>
			</g>
		</g>
	</g>
	<g>
		<g>
			<path class="st69" d="M278.1,398.8c-11,4.2-16.3,5.4-14.4,9.8c2.3,5.2-5.5,7.2-17.3,7.2c-21.1,0-29-8.8-29-14.9
				c0-9.1,13.8-15.2,34.8-16c9.1-0.3,23,2.9,26.1,6.4C281.8,395.2,281.4,397.5,278.1,398.8z"/>
			<g>
				<path class="st70" d="M260.5,386.9l3.9,1.8c0,0,7.9,2.8,9.6,3.8c0.9,0.5,1.3,1.6,1.5,2.3c0.1,0.5,0.1,1.7-0.2,2.1
					c-0.7,1-2.2,2-3.6,2.3c-2.7,0.5-8.3-0.6-8.3-0.6c-0.7-0.3-12.4-4.9-12.4-4.9s-0.2-0.4-0.3-1.3l-0.7-5.6L260.5,386.9z"/>
				<g>
					<path class="st55" d="M261.3,393.4c-0.1,0.1-0.2,0.2-0.3,0.1c-0.1-0.1-0.2-0.2-0.1-0.3c0.3-0.5,1.6-2.2,3-3
						c1.2-0.7,2.3-0.8,2.8-0.7c0.1,0,0.3,0.1,0.2,0.3c0,0.1-0.2,0.2-0.3,0.2c-0.4,0-1.4,0-2.5,0.6
						C262.9,391.3,261.7,392.8,261.3,393.4z"/>
				</g>
				<g>
					<path class="st55" d="M262.7,393.8c-0.1,0.1-0.2,0.2-0.3,0.1c-0.1-0.1-0.2-0.2-0.1-0.3c0.3-0.5,1.6-2.2,3-3
						c1.2-0.7,2.3-0.8,2.8-0.7c0.1,0,0.3,0.1,0.2,0.3c0,0.1-0.2,0.2-0.3,0.2c-0.4,0-1.4,0-2.5,0.6
						C264.3,391.7,263.1,393.2,262.7,393.8z"/>
				</g>
				<g>
					<path class="st55" d="M264,394.5c-0.1,0.1-0.2,0.2-0.3,0.1c-0.1-0.1-0.2-0.2-0.1-0.3c0.3-0.5,1.6-2.2,3-3
						c1.2-0.7,2.3-0.8,2.8-0.7c0.1,0,0.3,0.1,0.2,0.3c0,0.1-0.1,0.2-0.3,0.2c-0.4,0-1.4,0-2.5,0.6
						C265.6,392.4,264.4,393.9,264,394.5z"/>
				</g>
				<path class="st71" d="M274,392.5c-0.2-0.1-0.2-0.1-0.6-0.3c-0.6,0.1-1.7,0.4-3.2,1.4c-3,2-3.4,5-3.4,5s1.2,0.6,6.9-0.3
					c0.1,0,0.1,0,0.2,0c0.6-0.4,1.1-0.9,1.5-1.4c0.3-0.4,0.3-1.7,0.2-2.1C275.3,394.1,274.9,393,274,392.5z"/>
				<path class="st55" d="M275.5,395.2c0,0.7-2.2,1.9-3.6,2.3c-4.6,1.4-18.7-2.9-19.3-3.1c-1.5-0.5-1.8-1.2-1.8-1.2s0.3,1.7,0.4,1.7
					c0,0,0.3,1.6,1.2,1.9c0.7,0.3,6.3,1.4,7.7,1.8c0,0,7.7,2.1,12.1,0.9c1.2-0.3,2.8-0.8,3.3-2.3C275.6,397,275.5,395.2,275.5,395.2
					z"/>
			</g>
			<g>
				<path class="st70" d="M237.5,395.4l7.3,4.9c0,0,3.4,2.2,4.9,3.4c0.9,0.6,1.2,1.8,1.2,2.6c0,0.5-0.1,1.8-0.5,2.2
					c-0.9,0.9-2.6,1.6-4.1,2c-4.3,1-8.7-1.7-8.7-1.7c-0.7-0.5-12.2-5.7-12.2-5.7s-0.3-1.5-0.3-2.4v-5.9L237.5,395.4z"/>
				<g>
					<path class="st55" d="M236.5,402.7c-0.1,0.1-0.3,0.2-0.4,0.1c-0.1-0.1-0.2-0.2-0.1-0.3c0.4-0.5,1.9-2.3,3.6-3.2
						c1.4-0.7,2.6-0.7,3.2-0.6c0.2,0,0.3,0.2,0.2,0.3c0,0.1-0.2,0.2-0.3,0.2c-0.5-0.1-1.6-0.1-2.9,0.5
						C238.4,400.5,237,402.1,236.5,402.7z"/>
				</g>
				<g>
					<path class="st55" d="M238.2,403.7c-0.1,0.1-0.3,0.2-0.4,0.1c-0.1-0.1-0.2-0.2-0.1-0.3c0.4-0.5,2-2.3,3.6-3.1
						c1.4-0.7,2.6-0.6,3.2-0.6c0.2,0,0.3,0.2,0.2,0.3c0,0.1-0.2,0.2-0.3,0.2c-0.5-0.1-1.6-0.1-2.9,0.5
						C240.1,401.5,238.7,403.1,238.2,403.7z"/>
				</g>
				<g>
					<path class="st55" d="M239.6,404.5c-0.1,0.1-0.3,0.1-0.4,0c-0.1-0.1-0.2-0.2-0.1-0.3c0.4-0.5,2.1-2.2,3.8-2.9
						c1.5-0.6,2.7-0.5,3.2-0.4c0.2,0,0.3,0.2,0.2,0.3c0,0.1-0.2,0.2-0.3,0.2c-0.5-0.1-1.6-0.2-2.9,0.4
						C241.7,402.4,240.1,404,239.6,404.5z"/>
				</g>
				<path class="st71" d="M249.7,403.8c-0.3-0.2-0.6-0.4-0.9-0.6c-0.6-0.1-1.7,0-4,1.2c-3.4,1.7-4.9,4.7-4.9,4.7s2.3,1,8.4,0.9
					c0.1,0,0.2,0,0.3,0c0.8-0.3,1.5-0.8,2-1.3c0.3-0.4,0.5-1.7,0.5-2.2C250.9,405.6,250.6,404.4,249.7,403.8z"/>
				<path class="st55" d="M250.9,406.6c0,0.1-0.2,1.3-4.6,2.5c-7.1,1.9-18.6-5.5-19.2-5.9c-1.4-1-1.8-1.6-1.8-1.6s0.1,1.7,0.2,1.7
					c0,0,0.1,1.7,1,2.2c0.7,0.4,7.8,3.8,9.3,4.3c0,0,6.4,2.5,11,1.3c1.4-0.4,3.7-1,4.2-2.5C250.9,408.5,251,406.5,250.9,406.6z"/>
			</g>
			<path class="st72" d="M250.3,317.5c1,7.2,8.6,34.1,9.1,44.3c0.4,8,2.9,25.6,2.8,26c-0.6,4-10.3,6.3-12.2,1.8
				c0,0-1.8-21.1-3.6-26.3c-3.3-9.7-13.2-43.3-13.2-43.3L250.3,317.5z"/>
			<path class="st73" d="M241.2,318l-2.3,47.3l0.5,31.4c-0.1,1.6-1.5,2.6-4.2,2.9c-3.3,0.4-5.6-0.7-5.6-0.7
				c-2.1-0.7-4.4-2.4-4.5-4.5l-1-44.5l-0.6-33.4L241.2,318z"/>
			<g>
				<path class="st74" d="M252.1,391.6c0-0.2-2.1-21.9-3.5-26.9c-1.4-5.1-8.7-27.6-8.7-27.8l0.9-0.3c0.1,0.2,7.4,22.8,8.8,27.8
					c1.4,5.1,3.5,26.5,3.6,27.4c0,0-0.4-0.1-0.5-0.1C252.5,391.7,252.1,391.6,252.1,391.6z"/>
			</g>
			<g>
				<path class="st74" d="M255.3,392h-1c2.5-15.2-12.3-55.4-12.5-55.8l0.9-0.3C243.3,337.6,257.8,376.6,255.3,392z"/>
			</g>
			<g>
				<g>
					<polygon class="st74" points="226.5,397 225,333.5 225.9,333.5 227.5,397.8 226.9,397.4 					"/>
				</g>
				<g>
					<polygon class="st74" points="228.8,398.5 227.3,334.9 228.2,334.8 229.8,398.9 					"/>
				</g>
			</g>
			<path class="st73" d="M263.7,303.1c-0.2-0.6,0.3-3.4,0.3-3.4s-6.6-11.7-10.9-20c-4-7.7-7.2-6.2-7.6-5.9l0,0.2l3.9,19.1
				c0,0,3.8,6.7,4.5,7.8c0.6,0.8,0.6,1.4,0.4,1.8c1.5-0.9,4.3-2.2,7.6-1.1C262.7,301.9,263.3,302.4,263.7,303.1z"/>
			<path class="st75" d="M223.8,332.8c0,0-5.1-35.2-6.2-43.7c-0.4-3.1,1.7-4.8,1.7-4.8c1.4-1.4,12-10.2,12-10.2s0.8-1.1,0.8-1.1
				l6.1-0.9c0,0,6.6,0.3,8.6,3.3c2.9,4.6,3.9,5.1,4.7,14.6l1.6,38.4c0.4,1.9,1.1,3.7,0.4,4.1c0,0-4.9,5.3-15.7,5.4
				c-7.7,0-11.5-2.8-11.5-2.8C224.3,333.7,224.3,333.5,223.8,332.8z"/>
			<path class="st76" d="M230.1,265.7l-0.9,12.7c0,0,1.4,4.9,5.3,6.3c4.5,1.6,6.1-1,5.8-3.6c-0.4-2.6,2.3-8.9,2.3-8.9L230.1,265.7z"
				/>
			<path class="st76" d="M239.4,254.1L239.4,254.1l-8.3,1l1.6,15c0.2,1,0.3,1.9,0.6,2.8c0.3,0.9,0.8,1.8,2.1,2.5c0,0,2.3,1.4,4.3,2
				c0.9,0.2,6.6,2.4,7.6-3.4c0.1-0.8,0.9-14.2,0.9-14.2l-0.4-8.1L239.4,254.1z"/>
			<path class="st77" d="M249,256.6c0.3,3.1-0.8,3.7-0.8,3.7c0,0,0-1.8,0-2.5c-0.2-1.2-1.5-0.9-2.4-0.6c-3.3,1.1-5.5,2.1-5.9,2.3
				c-1.8,0.9-2.7,1.9-2.8,3.8l-0.3,2.7c-0.1,0.8-0.1,2.2-0.8,2.2c-0.7,0-0.4-0.1-0.7-0.8c0,0-1.8-3.8-3.1-3.1
				c-1.4,0.8-0.5,3.6-0.4,3.8l-2,3.7c0,0.1-0.3-1.1-1-2.9c-1-2.9-1.3-4.4-1.7-5.4c-1.6-4.5-2-6.6-2-7.5c0-1.4,4.3-9.7,11.4-9.1
				c0.4,0,3.3,0.6,3.8,0.7c0.3,0.1,6.5,2.1,7.5,2.3C250.5,251,248.6,252.2,249,256.6z"/>
			<g>
				<path class="st78" d="M226.2,261.3c4.3,1,8.4,1.7,10.8,1.9c0.1-1.1,0.5-2,1.3-2.6c-4.5-0.7-10.1-2.8-13.2-4
					C225.1,257.4,225.4,258.9,226.2,261.3z"/>
				<path class="st78" d="M227,263.8c0.3,1,0.7,2.4,1.7,5.3c0.6,1.8,1,3,1,2.9l2-3.7c-0.1-0.2-1-3,0.4-3.8c1.3-0.7,3.1,3.1,3.1,3.1
					c0.3,0.7,0,0.8,0.7,0.8c0.7,0,0.7-1.4,0.8-2.2l0.2-2C234.7,264.2,230,264.2,227,263.8z"/>
			</g>
			<path class="st77" d="M232.7,270.3c0,0,1.6-0.2,2.4,1.7c0.4,0.8,2.3,2.6,4,3.3c1.8,0.7,3.9,1.8,5,0.9c0.6-0.5,0.8-1.7,1.2-2.4
				c0.3-0.6,1,1.1,1.3,1c0.6,0,0.8-2.5,0.8-2.5s0.2,3-0.5,3.9c-0.7,0.9-2.4,2.8-6,2c-3.6-0.9-6.5-2.2-7.2-3.6
				C233.1,273.1,232.9,271.9,232.7,270.3z"/>
			<path class="st76" d="M232.3,263.8c2.2-0.2,2.6,1.8,2.6,1.8l0.6,4c0,0,0.2,1.3-0.5,1.5c-1.2,0.3-2.2-0.6-2.9-1.7
				c0-0.1-0.9-1.7-1-1.8C230.4,266.1,230.3,264,232.3,263.8z"/>
			<path class="st77" d="M239.5,276.2c0,0,2.4-3.4,3.1-4.1c0.7-0.6,1.3-1,2-1.3c0.7-0.3,2.4-0.9,2.4-0.9s0.5-0.2,0.4,0.5
				c0,0.6-0.1,2.6-0.1,2.6l-0.3,1.3c0,0,0.2-3.3-0.5-3.2c-0.7,0.2-2.1,0.9-2.7,1.1c-0.6,0.3-2.7,4.5-2.7,4.5l-1.9-0.9L239.5,276.2z"
				/>
			<g>
				<path class="st73" d="M264,299.6c-0.3-0.6-1.3-1.1-1.9-1.5c-2.8-1.6-9.6,1.9-9.6,1.9l-12.5,1.8c0,0-2.7,0.8-3.4,1.5
					c-2.1,2.1-1.6,6.4-1.6,6.4s17.4-0.1,24.6-1.8C262.4,307.1,265.9,303.5,264,299.6z"/>
			</g>
			<path class="st76" d="M241,301.8c0,0-6.7-0.5-8.2-0.3c-1.4,0.3-2.3,1.7-3.4,3.4c-1,1.7-1.6,2.4-1.8,3.4c-0.2,0.6-0.1,1.9,0.6,2.5
				c0.8,0.5,7.4-2.7,7.4-2.7l6.5-3.2C242.2,304.8,243,302.5,241,301.8z"/>
			<path class="st76" d="M241.3,304.3l2.4-2.5l2.5-2.7c0,0,1.3-1.5,1.9-1.7c1.1-0.5,2.6-0.7,5.1,0.2c1.3,0.5,3,1.6,3,1.6
				s1.9,1.6-1.7,2.3c-1.6,0.3-8.7,6.7-8.7,6.7L241.3,304.3z"/>
			<path class="st79" d="M221.1,284.1c0,0,4.1-0.8,5.3,3.4c1.2,4.2-0.3,18.1-0.3,18.6c-0.5,4.5,2.5,3.8,3.2,3.5c2-1,13-6.7,13-6.7
				s1.6,0,2.4,0.4c3.1,1.7,2.6,4.9,2.6,4.9s-18.2,13.6-24.3,14c-5.7,0.4-7.3-4.1-7.2-12.1c0-3.3,0-15.7,0-15.7
				S215.7,284.8,221.1,284.1z"/>
			<g>
				<path class="st74" d="M224.1,320.9c-0.7,0-1.5-0.1-2.2-0.4c-2.4-1-3.9-3.7-4.5-8c-1.8-14,1.8-27.5,1.8-27.6c0,0,0.3-0.2,0.5-0.3
					c0.2-0.1,0.6-0.2,0.6-0.2c0,0.1-3.8,14.2-2,28c0.5,4,1.8,6.4,3.9,7.3c3.5,1.4,8.2-2.1,8.2-2.2l16.8-11.3c0,0,0.1,0.4,0.1,0.6
					c0.1,0.3,0.1,0.5,0.1,0.5l-16.4,11C230.8,318.3,227.5,320.9,224.1,320.9z"/>
			</g>
			<g>
				<path class="st74" d="M223.9,318.5c-1.2,0-1.8-0.4-1.8-0.4c-6.1-6.2-1.1-32.8-0.8-34c0,0,0.2,0,0.4-0.1c0.1,0,0.5,0,0.5,0
					c-0.1,0.3-5.3,27.5,0.5,33.3l0,0c0,0,5,2.8,23-13.6l0.4,0.3l0.3,0.4C233.3,316.5,226.7,318.5,223.9,318.5z"/>
			</g>
		</g>
		<g>
			<path class="st80" d="M241.8,294.4l-0.3-0.3c-5.9-6-11.2-14.7-12.2-16.5c-0.1-0.2-0.1-0.4,0.1-0.6l0,0c0.1,0.1,5.7,9.9,12.1,16.5
				l-1-14.5l0.2-0.8L241.8,294.4z"/>
		</g>
		<g>
			<path class="st81" d="M244.9,295.2c-0.4-1.3-1.6-2.3-2.3-1.8l-2,1.1c0.8-0.5,2,0.7,2.3,1.8c0,0,0.5,1-0.2,3.2
				c0,0.1-0.3,1.1-0.4,1.2l2-1.1c0-0.1,0.3-1,0.4-1.2C245.3,296.3,244.9,295.2,244.9,295.2z"/>
			<g>
				<path class="st80" d="M241.6,294.6c0.6,0.3,1.1,1,1.3,1.7c0,0,0.5,1-0.2,3.2c0,0.1-0.3,1.1-0.4,1.2l-0.5-0.3
					c0-0.1,0.3-1.4,0.1-2.4c-0.1,0-0.2-0.1-0.4-0.2c-0.8-0.5-1.4-1.6-1.4-2.5C240.2,294.6,240.8,294.2,241.6,294.6z"/>
			</g>
		</g>
	</g>
	<g>
		<path class="st235" d="M171.7,431c-1.1,2.2,0.4,4.8,6.5,7.7c9.3,4.4,21.2,9.7,29.1,2c4.4-4.3,9.5-10.8,16-13.5
			c6.5-2.7,0.9-9.8-19-13.5C176.7,408.7,171.7,431,171.7,431z"/>
		<g>
			<polygon class="st236" points="200.4,423.9 196.3,426.1 196.3,423.1 202.7,423.1 			"/>
			<g>
				<path class="st236" d="M201.9,415.2l2.2,1.9c0,0,10.2,5,10.9,5.2c0.4,0.2,1.2,0.7,1.1,1.5c0,0.3,0,0.5-0.2,0.8
					c-0.7,1-2.2,1.5-3.5,1.7c-2.9,0.5-9.4-0.7-9.4-0.7c-0.7-0.3-4.9-1.1-5.2-1.3c0,0-1.3,0-1.6,0.5c-0.1,0.2,0,1.1,0.1,1.3l-3.9-1.5
					c-0.2-0.1-0.6-1.9-0.7-2.8l-0.7-5.5L201.9,415.2z"/>
				<g>
					<path class="st237" d="M216,424.1c-0.9,1.2-2.3,1.6-3.7,1.9c-4.4,0.9-10.6-1.4-10.6-1.4c-1.8-0.6-3.7-1-4.3-1
						c0,0-1.3,0.1-1.3,1.1c0,0.2-0.1,0.1,0,0.3c0-0.1,0-0.2,0-0.3c0.3-0.5,1-0.5,1-0.5c0.9,0,1.3,0.1,3.9,0.9c0,0,6,2.3,10.4,1.8
						c1.4-0.2,3.7-1,4.5-2.2c0.1-0.2,0.3-0.8,0.1-1.1C216.1,423.7,216,424.1,216,424.1z"/>
					<path class="st237" d="M196.4,424.4L192,423c0,0,0.4,1.6,0.4,1.6l3.9,1.5C196.3,425.9,196.4,424.7,196.4,424.4z"/>
				</g>
			</g>
		</g>
		<polygon class="st227" points="187.3,432.5 183.9,434.2 183.9,431.2 		"/>
		<path class="st238" d="M204.6,346.2c0,0,0.4,24.9,0.5,31.1c0.1,7.3,0,37.9,0,37.9c0,2.3,0.3,2.8-0.5,3.5c-2.9,2.6-12.1,6.8-13,1.8
			l-6.6-67.7L204.6,346.2z"/>
		<path class="st236" d="M191.2,424.5l6.8,5.7c0,0,3.4,2.7,4.7,3.5c0.6,0.3,1,1.1,1,1.8c0,0.5-0.1,0.9-0.4,1.2
			c-0.8,0.8-2.4,1.5-3.8,1.8c-4,0.9-8-1.6-8-1.6c-0.7-0.4-5.1-3.3-5.5-3.6c-0.9-0.8-1.8-1-2.1-0.5c0,0,0,1.2,0,1.4l-3.8-2.6
			c0,0-0.2-1.4-0.2-2.2v-5.5L191.2,424.5z"/>
		<g>
			<path class="st237" d="M203.7,435.6c-0.8,1.3-2.9,1.9-4.2,2.3c-4.7,1.2-8.1-1.5-8.1-1.5c-1.3-0.8-4.9-3.1-5.2-3.3
				c0,0-2.1-1.6-2.2-0.3c0,0.2-0.1,0.2,0,0.5c0-0.1,0.1-0.2,0.1-0.3c0.3-0.8,2.3,0.7,2.3,0.7c0.3,0.3,4.4,3.1,5,3.5
				c0,0,3.8,2.9,8.2,1.6c1.3-0.4,3-0.9,3.8-2.2C203.7,436.3,203.7,435.5,203.7,435.6z"/>
			<path class="st237" d="M183.9,432.7c0,0-1.8-1-2.4-1.3c-1.4-0.7-1.6-1.2-1.6-1.2s0.1,1.6,0.2,1.5c0,0,0,0.4,0.9,0.9
				c0.7,0.4,3,1.5,3,1.5V432.7z"/>
		</g>
		<path class="st226" d="M195.2,349.1c0,0-0.5,30.1-0.5,36.1c0,8.5,0.1,40.1,0.1,40.1c0,1.7-0.8,2.2-2.1,2.9
			c-8.2,4.4-12.5,0.9-12.5,0.9c-0.7-0.4-0.6-0.8-0.7-1.4c0,0-2.6-39.2-4.4-63.7c-0.1-2-0.2-13-0.2-13L195.2,349.1z"/>
		<path class="st52" d="M161.5,354.3l3.4,1.9l0.1,2.8l-1.5,2.5c0,0-0.4,0.7-0.3,1.8c0.1,0.4,0.2,1.2,0.2,1.2s-1,2.8-2.8,1.4
			c-0.6-0.5-0.9-1.2-0.9-1.2c-0.8-0.5-2.2-1.5-3.1-2.1c-2.1-1.4-0.4-3.9-0.4-3.9l1.4-2.6C158.4,354.8,159.9,353.4,161.5,354.3z"/>
		<path class="st52" d="M162.1,357c-0.7,1.3,0.5,3.1,1.7,3.8c0.4,0.2-0.7,3.7,1,4.6c0,0,0.5-0.8,1.3-2.3c0.1-0.1,1-1.3,0.7-2.6
			c-0.7-3.5-0.7-4.1-1.8-4.7C163.7,355,162.8,355.7,162.1,357z"/>
		<path class="st238" d="M242.8,331.9c-0.5,4.1-3.5,5.6-3.5,5.6s-17.3-5.5-23.1-9.1c-4.9-3.1-12-10-12-10s-8.4-6.7-5.9-11.7
			c1.4-2.9,5.4-6.4,10.5-1.7c2.4,2.2,9.6,12.2,13.7,15.2c4.3,3.2,19.6,8.6,19.6,8.6S243.1,330.2,242.8,331.9z"/>
		<path class="st155" d="M189.4,305.3c0,0,3.9-3.9,6.6-4.2c2.7-0.3,10.3,2.4,10.3,2.4s1.6,10.2,1.5,10.8c-0.1,0.6-4,33.7-4,33.7
			s-1,2.7-5.1,3.7c-3.7,0.9-9.3,2.2-14.8-0.1C178.9,349.5,189.4,305.3,189.4,305.3z"/>
		<path class="st45" d="M203,306.6c-4.8,2.9-6.7-2.1-8.5-5.7l2.2-10.8l8.9,5.2L203,306.6z"/>
		<path class="st52" d="M201.7,285.1c2.2,0.5,2,2.6,2,2.6l-0.9,4.4c0,0-0.3,0.9-1.2,0.9c-1.3,0-1.6-1.2-1.9-2.5c0-0.1-0.4-2-0.4-2.1
			C199,286.8,199.6,284.7,201.7,285.1z"/>
		<g>
			<path class="st227" d="M195.2,335c0.1-6.5,1.8-23.5,0-26.3c-2.6-4-2.3-6.8-2.3-6.8c0.7-0.3-15.1,4.4-15.3,6.6l-4.5,47.9
				c-0.1,1,0.2,1.8,1,2.5c0,0,2.6,3,6.9,4.5c2.6,0.9,7.5,1.5,10.9,0.6L195.2,335z"/>
			<path class="st227" d="M209.2,305.4c-0.6-1.4-5.1-4.4-5.6-4.6c1.7,2.1,3,9.9,2,15.7c-0.4,2.5-0.5,14.5-1.6,17.1l-1.4,27.9
				c1.5-0.7,4.4-3.5,4.4-3.5c1.2-1.5,1.1-3.3,1.4-4.5l0.9-25.8C210,320.5,210.3,308.3,209.2,305.4z"/>
		</g>
		<path class="st239" d="M202,313.3c0-0.4,0-0.7,0.2-1.1l0.6-1.3l-1.3-3.5l-1,0l-1.3,3.3l1,1.6c0.2,0.3,0.4,1.1,0.3,1.5
			c0,0-0.6,13.6-3.3,27.5c-0.3,1.5,2.6,6.4,2.6,6.4s2.3-4.7,2.7-6.5C204.2,334.5,202,313.3,202,313.3z"/>
		<path class="st240" d="M204.7,302.9l1.4-1.2c0,0,0.6,0.6,0.8,0.8c0.4,0.6,0.9,2.5,0.9,2.5l1.5,6.2c0.1,1,0.1,1.5-0.5,2.3l-1.9,1.7
			l1.3,2.1c0.8,1.3,0.5,2.1,0,3.4l-4,13c0,0,1-10.4,1.3-14.8C206.3,309.2,204.7,302.9,204.7,302.9z"/>
		<path class="st13" d="M201.5,306.8c-0.6,0.3-0.4,1-0.2,1.5l1.3,3c0.4,0.9,0.9,0.1,1.1-0.7l1.3-5.9c0.4-3.8-0.9-3.6-0.9-3.6
			s-0.2,0.3-0.3,1.1C203.6,303.5,203.7,305.8,201.5,306.8z"/>
		<path class="st13" d="M195.1,298.3c0,0-0.3,0.6-0.1,1.6c0.9,3.9,5.7,7,5.7,7c0.6,0.4,0.5,0.7,0.2,1.7l-1.4,3.7
			c-0.3,1-0.8,0.8-1.1,0.3c0,0-3.3-4.4-4.2-5.8c-2.1-3.3-2.2-3.2-0.4-6.5C194.8,298.3,195.1,298.3,195.1,298.3z"/>
		<path class="st240" d="M193.7,300.2l-1.9,1.5c0,0-0.6,0.5-0.7,0.7c-0.5,0.6-0.3,1.4-0.3,1.4l0.2,7.2c0.1,1.4,0.2,1.9,1.1,2.2
			l2.8,1.7l-2.2,2.8c-0.8,1-0.5,2-0.4,3l2.7,15.4c0,0,2.5-16,0.6-26.3C195,306,193.7,300.2,193.7,300.2z"/>
		<g>
			<path class="st58" d="M206.7,279.3L206.7,279.3l-8.6-0.8l-1.7,15.1c0,1.1-0.2,1.7-0.1,2.6c0.1,1,0.4,2,1.6,3c0,0,5.9,4.7,7.6,5
				c1.1,0.2,2.4,0.1,3.5-1.3c0.5-0.6,0.4-0.3,1.9-2.6c0.9-1.4,1.5-2.8,1.6-3.7l1.7-9.8l1-5.9L206.7,279.3z"/>
			<path class="st241" d="M215.9,278.6c0.8,1,0.4,0.8-0.8,4.6c-0.1,0.3-0.4,1.1-0.4,1.1c0.2-2.7-0.3-3.9-1.3-3.2
				c-2.2,1.6-4.7,3.7-5.8,4.6c-0.8,0.7-1.5,0.1-2.3-0.6c-0.9-0.8-1.1-1-1.4-1.1c-2-0.2-2,1.8-2.5,3.7l-0.6,2
				c-1.1,1.7-1.7,0.3-1.8-0.5c0,0,0.1-1.6-1.9-1.5c-1.7,0.1-0.8,4.1-0.8,4.3c0,0-0.6,5.1-0.9,4.2c-1.2-3.4-2.5-6.8-2.8-7.8
				c-3.5-11.6,6.1-19.3,16.5-14.9C211.2,274.3,215.9,278.6,215.9,278.6z"/>
			<path class="st58" d="M197.4,287.6c2.2,0.2,2.3,2.4,2.3,2.4l-0.5,4.5c0,0-0.2,1-1.1,1.1c-1.3,0.1-1.7-1-2.2-2.3
				c0-0.1-0.6-1.9-0.6-2.1C194.9,289.5,195.3,287.4,197.4,287.6z"/>
		</g>
		<path class="st226" d="M160.9,357.4c-1.5-0.3-2.3-1.1-2.3-1.1s-1.1-1-0.9-2.2c0.7-3.7,5.2-19.3,6.9-23.6
			c1.8-4.8,8.5-16.5,8.5-16.5s4.1-8.8,9.3-6.7c4.3,1.8,3.4,6,1.9,9.8c-1.2,3-10.1,18.4-10.1,18.4l-7.9,21.3
			C166.2,356.8,164.3,358.2,160.9,357.4z"/>
		<path class="st13" d="M242.3,330.1c0,0,0-1.1-0.7-0.8c-0.7,0.3-2.4,3.7-2.5,6.1c0,1.1,0.1,1.2,0.5,1.3c0.2,0.1,0.8-0.6,0.8-0.6
			s0.1,0,0.7-1.5C241.7,333.1,242.3,330.1,242.3,330.1z"/>
		<path class="st45" d="M241.4,330.5c0,0,7-0.7,8.8-0.2c1.7,0.4,4.8,4.9,4.8,4.9s0.6,2.8-0.1,3.9c-0.7,1.1-3,3.2-4.6,1.5
			c-1.6-1.8-3-2.8-4.2-2.7c-1.1,0.1-5.8-1.7-6.1-3C239.4,332.6,241.4,330.5,241.4,330.5z"/>
		<path class="st242" d="M246.2,332c0,0,3.3,1.9,3.8,2.3c0.5,0.4,1.6,2.9,1.9,3.3c0.3,0.5,0.5,0.7-0.2,0.9c-0.5,0.2-1.4,0.1-2.2-0.9
			c-0.8-1.1-1.1-1.5-1.1-1.5s-1.6,0.3-3,0.1c-1.4-0.2-3.2-1-3.5-2.1C241.4,332.7,242.7,330.5,246.2,332z"/>
	</g>
</g>
</svg>
